<?xml version="1.0" encoding="UTF-8"?>
<!DOCTYPE svg PUBLIC "-//W3C//DTD SVG 1.1//EN" "http://www.w3.org/Graphics/SVG/1.1/DTD/svg11.dtd">
<svg xmlns="http://www.w3.org/2000/svg" xmlns:xlink="http://www.w3.org/1999/xlink" version="1.1" width="753" height="565" viewBox="-0.5 -0.5 753 565"><defs><filter id="dropShadow"><feGaussianBlur in="SourceAlpha" stdDeviation="1.7" result="blur"/><feOffset in="blur" dx="3" dy="3" result="offsetBlur"/><feFlood flood-color="#3D4574" flood-opacity="0.4" result="offsetColor"/><feComposite in="offsetColor" in2="offsetBlur" operator="in" result="offsetBlur"/><feBlend in="SourceGraphic" in2="offsetBlur"/></filter></defs><g filter="url(#dropShadow)"><path d="M 684.87 335.92 C 684.75 330.48 686.89 325.22 690.81 321.32 C 694.74 317.43 700.11 315.22 705.73 315.2 C 718.26 315.32 728.47 324.53 728.93 336.13 C 729.4 341.47 727.51 346.75 723.69 350.75 C 719.88 354.75 714.47 357.11 708.74 357.28 C 696.06 357.52 685.48 348.05 684.87 335.92 Z M 662 387.2 C 662.5 377.08 666.91 367.64 674.15 361.2 C 679.89 356.33 687.88 356.03 693.92 360.47 C 697.36 362.65 701.14 364.41 705.14 365.69 C 709.26 367.22 713.76 366.96 717.71 364.96 C 719.87 364.07 721.78 362.78 723.32 361.2 C 724.84 359.64 727.48 359.32 729.43 360.47 C 732.88 362.45 735.97 365.95 738.4 370.61 C 740.74 375.9 741.96 381.52 742 387.19 Z" fill="#f8cecc" stroke="#e2332a" stroke-width="4" stroke-miterlimit="10" pointer-events="all"/><path d="M 639 384.48 L 573.93 384.34 L 574 486" fill="none" stroke="#e2332a" stroke-width="4" stroke-miterlimit="10" pointer-events="stroke"/><path d="M 638.16 392.54 L 695.65 392.54 L 707 406.48 L 627 406.48 Z M 640.2 362.48 L 693.4 362.48 L 694.98 392.19 L 638.63 392.19 Z" fill="#f8cecc" stroke="#e2332a" stroke-width="1.52" stroke-linejoin="round" stroke-miterlimit="10" pointer-events="all"/><path d="M 640.6 396 L 694.19 396 M 637.05 399.81 L 697.74 399.81 M 652.42 403.24 L 680 403.24" fill="none" stroke="#e2332a" stroke-width="1.52" stroke-linejoin="round" stroke-miterlimit="10" pointer-events="all"/><path d="M 642.8 365.15 L 690.88 365.15 L 692.22 389.53 L 641.38 389.53 Z" fill="#ffffff" stroke="none" pointer-events="all"/><path d="M 617 91 L 662.07 90.97 L 662.07 140.76 L 676.1 140.8" fill="none" stroke="#b85450" stroke-width="4" stroke-miterlimit="10" pointer-events="stroke"/><path d="M 537 91 L 479.45 90.97 L 479.45 130.97 L 412.4 131" fill="none" stroke="#666666" stroke-width="4" stroke-miterlimit="10" pointer-events="stroke"/><rect x="537" y="61" width="80" height="41.54" fill="#c3c3c3" stroke="#1d1d1d" stroke-width="1.85" pointer-events="all"/><rect x="567" y="102.54" width="20" height="9.23" fill="#c3c3c3" stroke="#1d1d1d" stroke-width="1.85" pointer-events="all"/><path d="M 552 110.85 L 602 110.85 L 612 121 L 542 121 Z M 566 118.69 L 584 118.69 M 553 115.92 L 592 115.92 M 555 113.15 L 591 113.15 M 594 113.15 L 601 113.15 M 596 115.92 L 603 115.92 M 598 118.69 L 605 118.69" fill="#c3c3c3" stroke="#1d1d1d" stroke-width="1.85" stroke-linejoin="round" stroke-miterlimit="10" pointer-events="all"/><rect x="540" y="63.77" width="73" height="36" fill="#ffffff" stroke="none" pointer-events="all"/><path d="M 447 282.5 C 447 276.7 462.67 272 482 272 C 501.33 272 517 276.7 517 282.5 L 517 296.5 C 517 302.3 501.33 307 482 307 C 462.67 307 447 302.3 447 296.5 Z" fill="#c3c3c3" stroke="#1d1d1d" stroke-width="1.4" stroke-miterlimit="10" pointer-events="all"/><path d="M 447 265 C 447 259.2 462.67 254.5 482 254.5 C 501.33 254.5 517 259.2 517 265 L 517 279 C 517 284.8 501.33 289.5 482 289.5 C 462.67 289.5 447 284.8 447 279 Z" fill="#c3c3c3" stroke="#1d1d1d" stroke-width="1.4" stroke-miterlimit="10" pointer-events="all"/><path d="M 447 247.5 C 447 241.7 462.67 237 482 237 C 501.33 237 517 241.7 517 247.5 L 517 261.5 C 517 267.3 501.33 272 482 272 C 462.67 272 447 267.3 447 261.5 Z" fill="#c3c3c3" stroke="#1d1d1d" stroke-width="1.4" stroke-miterlimit="10" pointer-events="all"/><path d="M 447 282.5 C 447 288.3 462.67 293 482 293 C 501.33 293 517 288.3 517 282.5 M 447 265 C 447 270.8 462.67 275.5 482 275.5 C 501.33 275.5 517 270.8 517 265 M 447 247.5 C 447 253.3 462.67 258 482 258 C 501.33 258 517 253.3 517 247.5" fill="none" stroke="#1d1d1d" stroke-width="1.4" stroke-miterlimit="10" pointer-events="all"/><path d="M 547 282.5 C 547 276.7 562.67 272 582 272 C 601.33 272 617 276.7 617 282.5 L 617 296.5 C 617 302.3 601.33 307 582 307 C 562.67 307 547 302.3 547 296.5 Z" fill="#c3c3c3" stroke="#1d1d1d" stroke-width="1.4" stroke-miterlimit="10" pointer-events="all"/><path d="M 547 265 C 547 259.2 562.67 254.5 582 254.5 C 601.33 254.5 617 259.2 617 265 L 617 279 C 617 284.8 601.33 289.5 582 289.5 C 562.67 289.5 547 284.8 547 279 Z" fill="#c3c3c3" stroke="#1d1d1d" stroke-width="1.4" stroke-miterlimit="10" pointer-events="all"/><path d="M 547 247.5 C 547 241.7 562.67 237 582 237 C 601.33 237 617 241.7 617 247.5 L 617 261.5 C 617 267.3 601.33 272 582 272 C 562.67 272 547 267.3 547 261.5 Z" fill="#c3c3c3" stroke="#1d1d1d" stroke-width="1.4" stroke-miterlimit="10" pointer-events="all"/><path d="M 547 282.5 C 547 288.3 562.67 293 582 293 C 601.33 293 617 288.3 617 282.5 M 547 265 C 547 270.8 562.67 275.5 582 275.5 C 601.33 275.5 617 270.8 617 265 M 547 247.5 C 547 253.3 562.67 258 582 258 C 601.33 258 617 253.3 617 247.5" fill="none" stroke="#1d1d1d" stroke-width="1.4" stroke-miterlimit="10" pointer-events="all"/><path d="M 347 282.5 C 347 276.7 362.67 272 382 272 C 401.33 272 417 276.7 417 282.5 L 417 296.5 C 417 302.3 401.33 307 382 307 C 362.67 307 347 302.3 347 296.5 Z" fill="#f8cecc" stroke="#e2332a" stroke-width="1.4" stroke-miterlimit="10" pointer-events="all"/><path d="M 347 265 C 347 259.2 362.67 254.5 382 254.5 C 401.33 254.5 417 259.2 417 265 L 417 279 C 417 284.8 401.33 289.5 382 289.5 C 362.67 289.5 347 284.8 347 279 Z" fill="#f8cecc" stroke="#e2332a" stroke-width="1.4" stroke-miterlimit="10" pointer-events="all"/><path d="M 347 247.5 C 347 241.7 362.67 237 382 237 C 401.33 237 417 241.7 417 247.5 L 417 261.5 C 417 267.3 401.33 272 382 272 C 362.67 272 347 267.3 347 261.5 Z" fill="#f8cecc" stroke="#e2332a" stroke-width="1.4" stroke-miterlimit="10" pointer-events="all"/><path d="M 347 282.5 C 347 288.3 362.67 293 382 293 C 401.33 293 417 288.3 417 282.5 M 347 265 C 347 270.8 362.67 275.5 382 275.5 C 401.33 275.5 417 270.8 417 265 M 347 247.5 C 347 253.3 362.67 258 382 258 C 401.33 258 417 253.3 417 247.5" fill="none" stroke="#e2332a" stroke-width="1.4" stroke-miterlimit="10" pointer-events="all"/><path d="M 382 166.2 L 382 237" fill="none" stroke="#666666" stroke-width="4" stroke-miterlimit="10" pointer-events="stroke"/><path d="M 382 166.2 L 482.07 166.14 L 482 237" fill="none" stroke="#666666" stroke-width="4" stroke-miterlimit="10" pointer-events="stroke"/><path d="M 382 166.2 L 582.07 166.14 L 582 237" fill="none" stroke="#666666" stroke-width="4" stroke-miterlimit="10" pointer-events="stroke"/><rect x="342" y="155.08" width="69.9" height="11.31" rx="1.51" ry="1.51" fill="#c3c3c3" stroke="#1d1d1d" stroke-width="1.51" pointer-events="all"/><rect x="342" y="141.89" width="69.9" height="11.31" rx="1.51" ry="1.51" fill="#c3c3c3" stroke="#1d1d1d" stroke-width="1.51" pointer-events="all"/><rect x="342" y="128.7" width="69.9" height="11.31" rx="1.51" ry="1.51" fill="#c3c3c3" stroke="#1d1d1d" stroke-width="1.51" pointer-events="all"/><rect x="342" y="115.5" width="69.9" height="11.31" rx="1.51" ry="1.51" fill="#c3c3c3" stroke="#1d1d1d" stroke-width="1.51" pointer-events="all"/><rect x="342" y="102.31" width="69.9" height="11.31" rx="1.51" ry="1.51" fill="#c3c3c3" stroke="#1d1d1d" stroke-width="1.51" pointer-events="all"/><path d="M 345.11 100.8 L 361.42 91 L 392.49 91 L 408.8 100.8 Z" fill="#c3c3c3" stroke="#1d1d1d" stroke-width="1.51" stroke-miterlimit="10" pointer-events="all"/><ellipse cx="405.69" cy="160.74" rx="3.1067961165048543" ry="3.0157383846951276" fill="#ffffff" stroke="none" pointer-events="all"/><ellipse cx="405.43" cy="147.55" rx="3.1067961165048543" ry="3.0157383846951276" fill="#ffffff" stroke="none" pointer-events="all"/><ellipse cx="405.69" cy="134.35" rx="3.1067961165048543" ry="3.0157383846951276" fill="#ffffff" stroke="none" pointer-events="all"/><ellipse cx="405.69" cy="121.16" rx="3.1067961165048543" ry="3.0157383846951276" fill="#ffffff" stroke="none" pointer-events="all"/><ellipse cx="405.69" cy="107.96" rx="3.1067961165048543" ry="3.0157383846951276" fill="#ffffff" stroke="none" pointer-events="all"/><path d="M 345.88 164.89 L 349.77 156.59 L 353.65 156.59 L 349.77 164.89 Z M 353.65 164.89 L 357.53 156.59 L 361.42 156.59 L 357.53 164.89 Z M 361.42 164.89 L 365.3 156.59 L 369.18 156.59 L 365.3 164.89 Z M 369.18 164.89 L 373.07 156.59 L 376.95 156.59 L 373.07 164.89 Z M 376.95 164.89 L 380.83 156.59 L 384.72 156.59 L 380.83 164.89 Z M 384.72 164.89 L 388.6 156.59 L 392.49 156.59 L 388.6 164.89 Z M 345.88 151.69 L 349.77 143.4 L 353.65 143.4 L 349.77 151.69 Z M 353.65 151.69 L 357.53 143.4 L 361.42 143.4 L 357.53 151.69 Z M 361.42 151.69 L 365.3 143.4 L 369.18 143.4 L 365.3 151.69 Z M 369.18 151.69 L 373.07 143.4 L 376.95 143.4 L 373.07 151.69 Z M 376.95 151.69 L 380.83 143.4 L 384.72 143.4 L 380.83 151.69 Z M 384.72 151.69 L 388.6 143.4 L 392.49 143.4 L 388.6 151.69 Z M 345.88 138.5 L 349.77 130.2 L 353.65 130.2 L 349.77 138.5 Z M 353.65 138.5 L 357.53 130.2 L 361.42 130.2 L 357.53 138.5 Z M 361.42 138.5 L 364.91 130.2 L 368.8 130.2 L 364.91 138.5 Z M 369.18 138.5 L 373.07 130.2 L 376.95 130.2 L 373.07 138.5 Z M 376.95 138.5 L 380.83 130.2 L 384.72 130.2 L 380.83 138.5 Z M 384.72 138.5 L 388.6 130.2 L 392.49 130.2 L 388.6 138.5 Z M 345.88 125.3 L 349.77 117.01 L 353.65 117.01 L 349.77 125.3 Z M 353.65 125.3 L 357.53 117.01 L 361.42 117.01 L 357.53 125.3 Z M 361.42 125.3 L 365.3 117.01 L 369.18 117.01 L 365.3 125.3 Z M 369.18 125.3 L 373.07 117.01 L 376.95 117.01 L 373.07 125.3 Z M 376.95 125.3 L 380.83 117.01 L 384.72 117.01 L 380.83 125.3 Z M 384.72 125.3 L 388.6 117.01 L 392.49 117.01 L 388.6 125.3 Z M 345.88 112.11 L 349.77 103.82 L 353.65 103.82 L 349.77 112.11 Z M 353.65 112.11 L 357.53 103.82 L 361.42 103.82 L 357.53 112.11 Z M 361.42 112.11 L 365.3 103.82 L 369.18 103.82 L 365.3 112.11 Z M 369.18 112.11 L 373.07 103.82 L 376.95 103.82 L 373.07 112.11 Z M 376.95 112.11 L 380.83 103.82 L 384.72 103.82 L 380.83 112.11 Z M 384.72 112.11 L 388.6 103.82 L 392.49 103.82 L 388.6 112.11 Z" fill="#ffffff" stroke="none" pointer-events="all"/><rect x="342" y="91" width="0" height="0" fill="none" stroke="#1d1d1d" stroke-width="1.51" pointer-events="all"/><path d="M 393.26 162.25 C 393.26 160.54 399.7 159.15 407.63 159.15 C 415.57 159.15 422 160.54 422 162.25 L 422 167.9 C 422 169.61 415.57 171 407.63 171 C 399.7 171 393.26 169.61 393.26 167.9 Z" fill="#c3c3c3" stroke="#1d1d1d" stroke-width="1.51" stroke-miterlimit="10" pointer-events="all"/><path d="M 393.26 155.08 C 393.26 153.37 399.7 151.98 407.63 151.98 C 415.57 151.98 422 153.37 422 155.08 L 422 160.74 C 422 162.45 415.57 163.84 407.63 163.84 C 399.7 163.84 393.26 162.45 393.26 160.74 Z" fill="#c3c3c3" stroke="#1d1d1d" stroke-width="1.51" stroke-miterlimit="10" pointer-events="all"/><path d="M 393.26 148.3 C 393.26 146.59 399.7 145.2 407.63 145.2 C 415.57 145.2 422 146.59 422 148.3 L 422 153.58 C 422 155.29 415.57 156.68 407.63 156.68 C 399.7 156.68 393.26 155.29 393.26 153.58 Z" fill="#c3c3c3" stroke="#1d1d1d" stroke-width="1.51" stroke-miterlimit="10" pointer-events="all"/><path d="M 393.26 162.25 C 393.26 163.96 399.7 165.35 407.63 165.35 C 415.57 165.35 422 163.96 422 162.25 M 393.26 155.08 C 393.26 156.8 399.7 158.18 407.63 158.18 C 415.57 158.18 422 156.8 422 155.08 M 393.26 148.3 C 393.26 150.01 399.7 151.4 407.63 151.4 C 415.57 151.4 422 150.01 422 148.3" fill="none" stroke="#1d1d1d" stroke-width="1.51" stroke-miterlimit="10" pointer-events="all"/><rect x="205" y="1" width="57" height="60" fill="none" stroke="none" pointer-events="all"/><path d="M 205 54.08 L 205 7.67 C 205.47 4.27 208.06 1.57 211.4 1 L 250.22 1 L 262 12.83 L 262 54.08 C 261.59 57.69 258.8 60.55 255.24 61 L 211.58 61 C 208.09 60.47 205.4 57.63 205 54.08 Z M 219.95 44.2 L 246.39 44.2 L 246.39 39.16 L 219.95 39.16 Z M 246.39 34.61 L 246.39 29.7 L 219.95 29.7 L 219.95 34.61 Z M 219.95 25.15 L 246.39 25.15 L 246.39 20.29 L 219.95 20.29 Z M 247.65 15.74 L 257.33 15.74 L 247.65 5.55 Z" fill="#f8cecc" stroke="#e2332a" stroke-width="2" stroke-miterlimit="10" pointer-events="all"/><rect x="285" y="1" width="57" height="60" fill="none" stroke="none" pointer-events="all"/><path d="M 285 54.08 L 285 7.67 C 285.47 4.27 288.06 1.57 291.4 1 L 330.22 1 L 342 12.83 L 342 54.08 C 341.59 57.69 338.8 60.55 335.24 61 L 291.58 61 C 288.09 60.47 285.4 57.63 285 54.08 Z M 299.95 44.2 L 326.39 44.2 L 326.39 39.16 L 299.95 39.16 Z M 326.39 34.61 L 326.39 29.7 L 299.95 29.7 L 299.95 34.61 Z M 299.95 25.15 L 326.39 25.15 L 326.39 20.29 L 299.95 20.29 Z M 327.65 15.74 L 337.33 15.74 L 327.65 5.55 Z" fill="#c3c3c3" stroke="#1d1d1d" stroke-width="2" stroke-miterlimit="10" pointer-events="all"/><path d="M 233.5 81 L 233.5 61" fill="none" stroke="#666666" stroke-width="4" stroke-miterlimit="10" pointer-events="stroke"/><path d="M 233.5 81 L 313.38 81.03 L 313.5 61" fill="none" stroke="#666666" stroke-width="4" stroke-miterlimit="10" pointer-events="stroke"/><path d="M 233.5 81 L 153.38 81.03 L 153.5 61" fill="none" stroke="#666666" stroke-width="4" stroke-miterlimit="10" pointer-events="stroke"/><rect x="193" y="157.5" width="81" height="13.5" rx="1.8" ry="1.8" fill="#c3c3c3" stroke="#1d1d1d" stroke-width="1.8" pointer-events="all"/><rect x="193" y="141.75" width="81" height="13.5" rx="1.8" ry="1.8" fill="#c3c3c3" stroke="#1d1d1d" stroke-width="1.8" pointer-events="all"/><rect x="193" y="126" width="81" height="13.5" rx="1.8" ry="1.8" fill="#c3c3c3" stroke="#1d1d1d" stroke-width="1.8" pointer-events="all"/><rect x="193" y="110.25" width="81" height="13.5" rx="1.8" ry="1.8" fill="#c3c3c3" stroke="#1d1d1d" stroke-width="1.8" pointer-events="all"/><rect x="193" y="94.5" width="81" height="13.5" rx="1.8" ry="1.8" fill="#c3c3c3" stroke="#1d1d1d" stroke-width="1.8" pointer-events="all"/><path d="M 196.6 92.7 L 215.5 81 L 251.5 81 L 270.4 92.7 Z" fill="#c3c3c3" stroke="#1d1d1d" stroke-width="1.8" stroke-miterlimit="10" pointer-events="all"/><ellipse cx="266.8" cy="164.25" rx="3.6" ry="3.6" fill="#ffffff" stroke="none" pointer-events="all"/><ellipse cx="266.5" cy="148.5" rx="3.6" ry="3.6" fill="#ffffff" stroke="none" pointer-events="all"/><ellipse cx="266.8" cy="132.75" rx="3.6" ry="3.6" fill="#ffffff" stroke="none" pointer-events="all"/><ellipse cx="266.8" cy="117" rx="3.6" ry="3.6" fill="#ffffff" stroke="none" pointer-events="all"/><ellipse cx="266.8" cy="101.25" rx="3.6" ry="3.6" fill="#ffffff" stroke="none" pointer-events="all"/><path d="M 197.5 169.2 L 202 159.3 L 206.5 159.3 L 202 169.2 Z M 206.5 169.2 L 211 159.3 L 215.5 159.3 L 211 169.2 Z M 215.5 169.2 L 220 159.3 L 224.5 159.3 L 220 169.2 Z M 224.5 169.2 L 229 159.3 L 233.5 159.3 L 229 169.2 Z M 233.5 169.2 L 238 159.3 L 242.5 159.3 L 238 169.2 Z M 242.5 169.2 L 247 159.3 L 251.5 159.3 L 247 169.2 Z M 197.5 153.45 L 202 143.55 L 206.5 143.55 L 202 153.45 Z M 206.5 153.45 L 211 143.55 L 215.5 143.55 L 211 153.45 Z M 215.5 153.45 L 220 143.55 L 224.5 143.55 L 220 153.45 Z M 224.5 153.45 L 229 143.55 L 233.5 143.55 L 229 153.45 Z M 233.5 153.45 L 238 143.55 L 242.5 143.55 L 238 153.45 Z M 242.5 153.45 L 247 143.55 L 251.5 143.55 L 247 153.45 Z M 197.5 137.7 L 202 127.8 L 206.5 127.8 L 202 137.7 Z M 206.5 137.7 L 211 127.8 L 215.5 127.8 L 211 137.7 Z M 215.5 137.7 L 219.55 127.8 L 224.05 127.8 L 219.55 137.7 Z M 224.5 137.7 L 229 127.8 L 233.5 127.8 L 229 137.7 Z M 233.5 137.7 L 238 127.8 L 242.5 127.8 L 238 137.7 Z M 242.5 137.7 L 247 127.8 L 251.5 127.8 L 247 137.7 Z M 197.5 121.95 L 202 112.05 L 206.5 112.05 L 202 121.95 Z M 206.5 121.95 L 211 112.05 L 215.5 112.05 L 211 121.95 Z M 215.5 121.95 L 220 112.05 L 224.5 112.05 L 220 121.95 Z M 224.5 121.95 L 229 112.05 L 233.5 112.05 L 229 121.95 Z M 233.5 121.95 L 238 112.05 L 242.5 112.05 L 238 121.95 Z M 242.5 121.95 L 247 112.05 L 251.5 112.05 L 247 121.95 Z M 197.5 106.2 L 202 96.3 L 206.5 96.3 L 202 106.2 Z M 206.5 106.2 L 211 96.3 L 215.5 96.3 L 211 106.2 Z M 215.5 106.2 L 220 96.3 L 224.5 96.3 L 220 106.2 Z M 224.5 106.2 L 229 96.3 L 233.5 96.3 L 229 106.2 Z M 233.5 106.2 L 238 96.3 L 242.5 96.3 L 238 106.2 Z M 242.5 106.2 L 247 96.3 L 251.5 96.3 L 247 106.2 Z" fill="#ffffff" stroke="none" pointer-events="all"/><rect x="125" y="1" width="57" height="60" fill="none" stroke="none" pointer-events="all"/><path d="M 125 54.08 L 125 7.67 C 125.47 4.27 128.06 1.57 131.4 1 L 170.22 1 L 182 12.83 L 182 54.08 C 181.59 57.69 178.8 60.55 175.24 61 L 131.58 61 C 128.09 60.47 125.4 57.63 125 54.08 Z M 139.95 44.2 L 166.39 44.2 L 166.39 39.16 L 139.95 39.16 Z M 166.39 34.61 L 166.39 29.7 L 139.95 29.7 L 139.95 34.61 Z M 139.95 25.15 L 166.39 25.15 L 166.39 20.29 L 139.95 20.29 Z M 167.65 15.74 L 177.33 15.74 L 167.65 5.55 Z" fill="#c3c3c3" stroke="#1d1d1d" stroke-width="2" stroke-miterlimit="10" pointer-events="all"/><path d="M 233.5 237 L 233.5 171" fill="none" stroke="#e2332a" stroke-width="4" stroke-miterlimit="10" pointer-events="stroke"/><path d="M 233.5 237 L 233.66 204.07 L 302.07 204.07 L 302.07 130.97 L 342 131" fill="none" stroke="#e2332a" stroke-width="4" stroke-miterlimit="10" pointer-events="stroke"/><rect x="179.5" y="237" width="108" height="27.93" rx="5.59" ry="5.59" fill="#c3c3c3" stroke="#1d1d1d" stroke-width="2.16" pointer-events="all"/><rect x="190.3" y="264.93" width="86.4" height="4.47" fill="#c3c3c3" stroke="#1d1d1d" stroke-width="2.16" pointer-events="all"/><ellipse cx="274.54" cy="250.97" rx="8.64" ry="8.937931034482759" fill="#ffffff" stroke="none" pointer-events="all"/><ellipse cx="260.5" cy="242.59" rx="2.16" ry="2.2344827586206897" fill="#ffffff" stroke="none" pointer-events="all"/><ellipse cx="260.5" cy="259.34" rx="2.16" ry="2.2344827586206897" fill="#ffffff" stroke="none" pointer-events="all"/><ellipse cx="260.5" cy="250.97" rx="2.16" ry="2.2344827586206897" fill="#ffffff" stroke="none" pointer-events="all"/><ellipse cx="250.24" cy="255.99" rx="2.16" ry="2.2344827586206897" fill="#ffffff" stroke="none" pointer-events="all"/><ellipse cx="241.06" cy="255.99" rx="2.16" ry="2.2344827586206897" fill="#ffffff" stroke="none" pointer-events="all"/><ellipse cx="231.88" cy="255.99" rx="2.16" ry="2.2344827586206897" fill="#ffffff" stroke="none" pointer-events="all"/><ellipse cx="222.7" cy="255.99" rx="2.16" ry="2.2344827586206897" fill="#ffffff" stroke="none" pointer-events="all"/><ellipse cx="213.52" cy="255.99" rx="2.16" ry="2.2344827586206897" fill="#ffffff" stroke="none" pointer-events="all"/><ellipse cx="204.34" cy="255.99" rx="2.16" ry="2.2344827586206897" fill="#ffffff" stroke="none" pointer-events="all"/><ellipse cx="195.16" cy="255.99" rx="2.16" ry="2.2344827586206897" fill="#ffffff" stroke="none" pointer-events="all"/><ellipse cx="185.98" cy="255.99" rx="2.16" ry="2.2344827586206897" fill="#ffffff" stroke="none" pointer-events="all"/><path d="M 182.74 244.82 L 189.22 244.82 L 189.22 248.17 L 187.06 248.17 L 187.06 249.29 L 184.9 249.29 L 184.9 248.17 L 182.74 248.17 Z M 191.92 244.82 L 198.4 244.82 L 198.4 248.17 L 196.24 248.17 L 196.24 249.29 L 194.08 249.29 L 194.08 248.17 L 191.92 248.17 Z M 201.1 244.82 L 207.58 244.82 L 207.58 248.17 L 205.42 248.17 L 205.42 249.29 L 203.26 249.29 L 203.26 248.17 L 201.1 248.17 Z M 210.28 244.82 L 216.76 244.82 L 216.76 248.17 L 214.6 248.17 L 214.6 249.29 L 212.44 249.29 L 212.44 248.17 L 210.28 248.17 Z M 219.46 244.82 L 225.94 244.82 L 225.94 248.17 L 223.78 248.17 L 223.78 249.29 L 221.62 249.29 L 221.62 248.17 L 219.46 248.17 Z M 228.64 244.82 L 235.12 244.82 L 235.12 248.17 L 232.96 248.17 L 232.96 249.29 L 230.8 249.29 L 230.8 248.17 L 228.64 248.17 Z M 237.82 244.82 L 244.3 244.82 L 244.3 248.17 L 242.14 248.17 L 242.14 249.29 L 239.98 249.29 L 239.98 248.17 L 237.82 248.17 Z M 247 244.82 L 253.48 244.82 L 253.48 248.17 L 251.32 248.17 L 251.32 249.29 L 249.16 249.29 L 249.16 248.17 L 247 248.17 Z" fill="#ffffff" stroke="none" pointer-events="all"/><path d="M 268.06 247.06 L 270.22 244.82 L 272.38 247.06 M 268.06 254.88 L 270.22 257.11 L 272.38 254.88 M 276.7 247.06 L 278.86 244.82 L 281.02 247.06 M 276.7 254.88 L 278.86 257.11 L 281.02 254.88 M 278.86 257.11 L 278.86 253.76 L 270.22 248.17 L 270.22 244.82 M 270.22 257.11 L 270.22 253.76 L 278.86 248.17 L 278.86 244.82" fill="none" stroke="#1d1d1d" stroke-width="1.08" stroke-miterlimit="10" pointer-events="all"/><path d="M 102 100.9 Q 147.45 101.03 147.45 113.52 Q 147.45 126 176.53 126" fill="none" stroke="#e2332a" stroke-width="4" stroke-miterlimit="10" stroke-dasharray="12 12" pointer-events="stroke"/><path d="M 188.53 126 L 172.53 134 L 176.53 126 L 172.53 118 Z" fill="#e2332a" stroke="#e2332a" stroke-width="4" stroke-miterlimit="10" pointer-events="all"/><path d="M 102 131 L 142.07 130.97 L 142.07 204.07 L 233.66 204.07 L 233.5 237" fill="none" stroke="#666666" stroke-width="4" stroke-miterlimit="10" pointer-events="stroke"/><rect x="2" y="96" width="30" height="60" rx="2" ry="2" fill="#f8cecc" stroke="#e2332a" stroke-width="2" pointer-events="all"/><path d="M 2 106 L 32 106 M 2 126 L 32 126" fill="none" stroke="#e2332a" stroke-width="2" stroke-linejoin="round" stroke-miterlimit="10" pointer-events="all"/><rect x="22" y="101" width="80" height="45" fill="#f8cecc" stroke="#e2332a" stroke-width="2" pointer-events="all"/><rect x="52" y="146" width="20" height="10" fill="#f8cecc" stroke="#e2332a" stroke-width="2" pointer-events="all"/><path d="M 37 155 L 87 155 L 97 166 L 27 166 Z" fill="#f8cecc" stroke="#e2332a" stroke-width="2" stroke-linejoin="round" stroke-miterlimit="10" pointer-events="all"/><path d="M 51 163.5 L 69 163.5 M 38 160.5 L 77 160.5 M 40 157.5 L 76 157.5 M 79 157.5 L 86 157.5 M 81 160.5 L 88 160.5 M 83 163.5 L 90 163.5" fill="none" stroke="#e2332a" stroke-width="2" stroke-linejoin="round" stroke-miterlimit="10" pointer-events="all"/><rect x="25" y="104" width="73" height="39" fill="#ffffff" stroke="none" pointer-events="all"/><ellipse cx="7" cy="131" rx="2" ry="2" fill="#ffffff" stroke="none" pointer-events="all"/><path d="M 233.5 284 L 233.5 269.4" fill="none" stroke="#666666" stroke-width="4" stroke-miterlimit="10" pointer-events="stroke"/><path d="M 233.5 317.6 L 233.5 344" fill="none" stroke="#666666" stroke-width="4" stroke-miterlimit="10" pointer-events="stroke"/><rect x="177.5" y="284" width="112" height="28.97" rx="5.79" ry="5.79" fill="#c3c3c3" stroke="#1d1d1d" stroke-width="2.24" pointer-events="all"/><rect x="188.7" y="312.97" width="89.6" height="4.63" fill="#c3c3c3" stroke="#1d1d1d" stroke-width="2.24" pointer-events="all"/><path d="M 180.86 292.11 L 187.58 292.11 L 187.58 295.59 L 185.34 295.59 L 185.34 296.74 L 183.1 296.74 L 183.1 295.59 L 180.86 295.59 Z M 190.38 292.11 L 197.1 292.11 L 197.1 295.59 L 194.86 295.59 L 194.86 296.74 L 192.62 296.74 L 192.62 295.59 L 190.38 295.59 Z M 199.9 292.11 L 206.62 292.11 L 206.62 295.59 L 204.38 295.59 L 204.38 296.74 L 202.14 296.74 L 202.14 295.59 L 199.9 295.59 Z M 209.42 292.11 L 216.14 292.11 L 216.14 295.59 L 213.9 295.59 L 213.9 296.74 L 211.66 296.74 L 211.66 295.59 L 209.42 295.59 Z M 218.94 292.11 L 225.66 292.11 L 225.66 295.59 L 223.42 295.59 L 223.42 296.74 L 221.18 296.74 L 221.18 295.59 L 218.94 295.59 Z M 228.46 292.11 L 235.18 292.11 L 235.18 295.59 L 232.94 295.59 L 232.94 296.74 L 230.7 296.74 L 230.7 295.59 L 228.46 295.59 Z M 237.98 292.11 L 244.7 292.11 L 244.7 295.59 L 242.46 295.59 L 242.46 296.74 L 240.22 296.74 L 240.22 295.59 L 237.98 295.59 Z M 247.5 292.11 L 254.22 292.11 L 254.22 295.59 L 251.98 295.59 L 251.98 296.74 L 249.74 296.74 L 249.74 295.59 L 247.5 295.59 Z" fill="#ffffff" stroke="none" pointer-events="all"/><ellipse cx="276.06" cy="298.48" rx="8.96" ry="9.26896551724138" fill="#ffffff" stroke="none" pointer-events="all"/><ellipse cx="261.5" cy="289.79" rx="2.24" ry="2.317241379310345" fill="#ffffff" stroke="none" pointer-events="all"/><ellipse cx="261.5" cy="307.17" rx="2.24" ry="2.317241379310345" fill="#ffffff" stroke="none" pointer-events="all"/><ellipse cx="261.5" cy="298.48" rx="2.24" ry="2.317241379310345" fill="#ffffff" stroke="none" pointer-events="all"/><ellipse cx="250.86" cy="303.7" rx="2.24" ry="2.317241379310345" fill="#ffffff" stroke="none" pointer-events="all"/><ellipse cx="241.34" cy="303.7" rx="2.24" ry="2.317241379310345" fill="#ffffff" stroke="none" pointer-events="all"/><ellipse cx="231.82" cy="303.7" rx="2.24" ry="2.317241379310345" fill="#ffffff" stroke="none" pointer-events="all"/><ellipse cx="222.3" cy="303.7" rx="2.24" ry="2.317241379310345" fill="#ffffff" stroke="none" pointer-events="all"/><ellipse cx="212.78" cy="303.7" rx="2.24" ry="2.317241379310345" fill="#ffffff" stroke="none" pointer-events="all"/><ellipse cx="203.26" cy="303.7" rx="2.24" ry="2.317241379310345" fill="#ffffff" stroke="none" pointer-events="all"/><ellipse cx="193.74" cy="303.7" rx="2.24" ry="2.317241379310345" fill="#ffffff" stroke="none" pointer-events="all"/><ellipse cx="184.22" cy="303.7" rx="2.24" ry="2.317241379310345" fill="#ffffff" stroke="none" pointer-events="all"/><path d="M 276.06 292.11 L 276.06 304.86 M 268.78 298.48 L 273.26 298.48 M 278.86 298.48 L 283.34 298.48 M 273.82 294.43 L 276.06 292.11 L 278.3 294.43 M 273.82 302.54 L 276.06 304.86 L 278.3 302.54 M 271.02 296.17 L 273.26 298.48 L 271.02 300.8 M 281.1 296.17 L 278.86 298.48 L 281.1 300.8" fill="none" stroke="#1d1d1d" stroke-width="1.12" stroke-miterlimit="10" pointer-events="all"/><path d="M 269.98 392 L 336 392.07 L 336 387.24" fill="none" stroke="#e2332a" stroke-width="4" stroke-miterlimit="10" pointer-events="stroke"/><rect x="185.5" y="420.26" width="83.88" height="13.46" rx="1.79" ry="1.79" fill="#c3c3c3" stroke="#1d1d1d" stroke-width="1.79" pointer-events="all"/><rect x="185.5" y="404.56" width="83.88" height="13.46" rx="1.79" ry="1.79" fill="#c3c3c3" stroke="#1d1d1d" stroke-width="1.79" pointer-events="all"/><rect x="185.5" y="388.86" width="83.88" height="13.46" rx="1.79" ry="1.79" fill="#c3c3c3" stroke="#1d1d1d" stroke-width="1.79" pointer-events="all"/><rect x="185.5" y="373.16" width="83.88" height="13.46" rx="1.79" ry="1.79" fill="#c3c3c3" stroke="#1d1d1d" stroke-width="1.79" pointer-events="all"/><rect x="185.5" y="357.46" width="83.88" height="13.46" rx="1.79" ry="1.79" fill="#c3c3c3" stroke="#1d1d1d" stroke-width="1.79" pointer-events="all"/><path d="M 189.23 355.66 L 208.8 344 L 246.08 344 L 265.66 355.66 Z" fill="#c3c3c3" stroke="#1d1d1d" stroke-width="1.79" stroke-miterlimit="10" pointer-events="all"/><ellipse cx="261.93" cy="426.99" rx="3.7281553398058254" ry="3.588785046728972" fill="#ffffff" stroke="none" pointer-events="all"/><ellipse cx="261.62" cy="411.29" rx="3.7281553398058254" ry="3.588785046728972" fill="#ffffff" stroke="none" pointer-events="all"/><ellipse cx="261.93" cy="395.59" rx="3.7281553398058254" ry="3.588785046728972" fill="#ffffff" stroke="none" pointer-events="all"/><ellipse cx="261.93" cy="379.89" rx="3.7281553398058254" ry="3.588785046728972" fill="#ffffff" stroke="none" pointer-events="all"/><ellipse cx="261.93" cy="364.19" rx="3.7281553398058254" ry="3.588785046728972" fill="#ffffff" stroke="none" pointer-events="all"/><path d="M 190.16 431.93 L 194.82 422.06 L 199.48 422.06 L 194.82 431.93 Z M 199.48 431.93 L 204.14 422.06 L 208.8 422.06 L 204.14 431.93 Z M 208.8 431.93 L 213.46 422.06 L 218.12 422.06 L 213.46 431.93 Z M 218.12 431.93 L 222.78 422.06 L 227.44 422.06 L 222.78 431.93 Z M 227.44 431.93 L 232.1 422.06 L 236.76 422.06 L 232.1 431.93 Z M 236.76 431.93 L 241.42 422.06 L 246.08 422.06 L 241.42 431.93 Z M 190.16 416.22 L 194.82 406.36 L 199.48 406.36 L 194.82 416.22 Z M 199.48 416.22 L 204.14 406.36 L 208.8 406.36 L 204.14 416.22 Z M 208.8 416.22 L 213.46 406.36 L 218.12 406.36 L 213.46 416.22 Z M 218.12 416.22 L 222.78 406.36 L 227.44 406.36 L 222.78 416.22 Z M 227.44 416.22 L 232.1 406.36 L 236.76 406.36 L 232.1 416.22 Z M 236.76 416.22 L 241.42 406.36 L 246.08 406.36 L 241.42 416.22 Z M 190.16 400.52 L 194.82 390.65 L 199.48 390.65 L 194.82 400.52 Z M 199.48 400.52 L 204.14 390.65 L 208.8 390.65 L 204.14 400.52 Z M 208.8 400.52 L 213 390.65 L 217.66 390.65 L 213 400.52 Z M 218.12 400.52 L 222.78 390.65 L 227.44 390.65 L 222.78 400.52 Z M 227.44 400.52 L 232.1 390.65 L 236.76 390.65 L 232.1 400.52 Z M 236.76 400.52 L 241.42 390.65 L 246.08 390.65 L 241.42 400.52 Z M 190.16 384.82 L 194.82 374.95 L 199.48 374.95 L 194.82 384.82 Z M 199.48 384.82 L 204.14 374.95 L 208.8 374.95 L 204.14 384.82 Z M 208.8 384.82 L 213.46 374.95 L 218.12 374.95 L 213.46 384.82 Z M 218.12 384.82 L 222.78 374.95 L 227.44 374.95 L 222.78 384.82 Z M 227.44 384.82 L 232.1 374.95 L 236.76 374.95 L 232.1 384.82 Z M 236.76 384.82 L 241.42 374.95 L 246.08 374.95 L 241.42 384.82 Z M 190.16 369.12 L 194.82 359.25 L 199.48 359.25 L 194.82 369.12 Z M 199.48 369.12 L 204.14 359.25 L 208.8 359.25 L 204.14 369.12 Z M 208.8 369.12 L 213.46 359.25 L 218.12 359.25 L 213.46 369.12 Z M 218.12 369.12 L 222.78 359.25 L 227.44 359.25 L 222.78 369.12 Z M 227.44 369.12 L 232.1 359.25 L 236.76 359.25 L 232.1 369.12 Z M 236.76 369.12 L 241.42 359.25 L 246.08 359.25 L 241.42 369.12 Z" fill="#ffffff" stroke="none" pointer-events="all"/><rect x="185.5" y="344" width="0" height="0" fill="none" stroke="#1d1d1d" stroke-width="1.79" pointer-events="all"/><ellipse cx="264.72" cy="423.85" rx="16.776699029126213" ry="16.149532710280372" fill="#c3c3c3" stroke="#1d1d1d" stroke-width="1.79" pointer-events="all"/><rect x="254" y="415.78" width="21.44" height="16.15" fill="none" stroke="#ffffff" stroke-width="1.79" pointer-events="all"/><rect x="256.33" y="418.02" width="16.78" height="12.11" fill="#ffffff" stroke="none" pointer-events="all"/><path d="M 110 253.2 L 110.07 272.07 L 142.07 272.07 L 142.07 204.07 L 233.66 204.07 L 233.5 237" fill="none" stroke="#e2332a" stroke-width="4" stroke-miterlimit="10" pointer-events="stroke"/><rect x="22" y="282.64" width="87.38" height="14.02" rx="1.87" ry="1.87" fill="#c3c3c3" stroke="#1d1d1d" stroke-width="1.87" pointer-events="all"/><rect x="22" y="266.28" width="87.38" height="14.02" rx="1.87" ry="1.87" fill="#c3c3c3" stroke="#1d1d1d" stroke-width="1.87" pointer-events="all"/><rect x="22" y="249.93" width="87.38" height="14.02" rx="1.87" ry="1.87" fill="#c3c3c3" stroke="#1d1d1d" stroke-width="1.87" pointer-events="all"/><rect x="22" y="233.57" width="87.38" height="14.02" rx="1.87" ry="1.87" fill="#c3c3c3" stroke="#1d1d1d" stroke-width="1.87" pointer-events="all"/><rect x="22" y="217.22" width="87.38" height="14.02" rx="1.87" ry="1.87" fill="#c3c3c3" stroke="#1d1d1d" stroke-width="1.87" pointer-events="all"/><path d="M 25.88 215.35 L 46.27 203.2 L 85.11 203.2 L 105.5 215.35 Z" fill="#c3c3c3" stroke="#1d1d1d" stroke-width="1.87" stroke-miterlimit="10" pointer-events="all"/><ellipse cx="101.61" cy="289.65" rx="3.883495145631068" ry="3.7383177570093458" fill="#ffffff" stroke="none" pointer-events="all"/><ellipse cx="101.29" cy="273.29" rx="3.883495145631068" ry="3.7383177570093458" fill="#ffffff" stroke="none" pointer-events="all"/><ellipse cx="101.61" cy="256.94" rx="3.883495145631068" ry="3.7383177570093458" fill="#ffffff" stroke="none" pointer-events="all"/><ellipse cx="101.61" cy="240.58" rx="3.883495145631068" ry="3.7383177570093458" fill="#ffffff" stroke="none" pointer-events="all"/><ellipse cx="101.61" cy="224.23" rx="3.883495145631068" ry="3.7383177570093458" fill="#ffffff" stroke="none" pointer-events="all"/><path d="M 26.85 294.79 L 31.71 284.51 L 36.56 284.51 L 31.71 294.79 Z M 36.56 294.79 L 41.42 284.51 L 46.27 284.51 L 41.42 294.79 Z M 46.27 294.79 L 51.13 284.51 L 55.98 284.51 L 51.13 294.79 Z M 55.98 294.79 L 60.83 284.51 L 65.69 284.51 L 60.83 294.79 Z M 65.69 294.79 L 70.54 284.51 L 75.4 284.51 L 70.54 294.79 Z M 75.4 294.79 L 80.25 284.51 L 85.11 284.51 L 80.25 294.79 Z M 26.85 278.43 L 31.71 268.15 L 36.56 268.15 L 31.71 278.43 Z M 36.56 278.43 L 41.42 268.15 L 46.27 268.15 L 41.42 278.43 Z M 46.27 278.43 L 51.13 268.15 L 55.98 268.15 L 51.13 278.43 Z M 55.98 278.43 L 60.83 268.15 L 65.69 268.15 L 60.83 278.43 Z M 65.69 278.43 L 70.54 268.15 L 75.4 268.15 L 70.54 278.43 Z M 75.4 278.43 L 80.25 268.15 L 85.11 268.15 L 80.25 278.43 Z M 26.85 262.08 L 31.71 251.8 L 36.56 251.8 L 31.71 262.08 Z M 36.56 262.08 L 41.42 251.8 L 46.27 251.8 L 41.42 262.08 Z M 46.27 262.08 L 50.64 251.8 L 55.5 251.8 L 50.64 262.08 Z M 55.98 262.08 L 60.83 251.8 L 65.69 251.8 L 60.83 262.08 Z M 65.69 262.08 L 70.54 251.8 L 75.4 251.8 L 70.54 262.08 Z M 75.4 262.08 L 80.25 251.8 L 85.11 251.8 L 80.25 262.08 Z M 26.85 245.72 L 31.71 235.44 L 36.56 235.44 L 31.71 245.72 Z M 36.56 245.72 L 41.42 235.44 L 46.27 235.44 L 41.42 245.72 Z M 46.27 245.72 L 51.13 235.44 L 55.98 235.44 L 51.13 245.72 Z M 55.98 245.72 L 60.83 235.44 L 65.69 235.44 L 60.83 245.72 Z M 65.69 245.72 L 70.54 235.44 L 75.4 235.44 L 70.54 245.72 Z M 75.4 245.72 L 80.25 235.44 L 85.11 235.44 L 80.25 245.72 Z M 26.85 229.37 L 31.71 219.09 L 36.56 219.09 L 31.71 229.37 Z M 36.56 229.37 L 41.42 219.09 L 46.27 219.09 L 41.42 229.37 Z M 46.27 229.37 L 51.13 219.09 L 55.98 219.09 L 51.13 229.37 Z M 55.98 229.37 L 60.83 219.09 L 65.69 219.09 L 60.83 229.37 Z M 65.69 229.37 L 70.54 219.09 L 75.4 219.09 L 70.54 229.37 Z M 75.4 229.37 L 80.25 219.09 L 85.11 219.09 L 80.25 229.37 Z" fill="#ffffff" stroke="none" pointer-events="all"/><rect x="22" y="203.2" width="0" height="0" fill="none" stroke="#1d1d1d" stroke-width="1.87" pointer-events="all"/><ellipse cx="104.52" cy="286.38" rx="17.475728155339805" ry="16.822429906542055" fill="#c3c3c3" stroke="#1d1d1d" stroke-width="1.87" pointer-events="all"/><path d="M 104.52 269.56 L 104.52 303.2 M 87.44 286.38 L 122 286.19 M 104.52 269.56 C 113.78 278.64 113.78 293.18 104.52 302.27 M 104.52 269.56 C 95.27 278.64 95.27 293.18 104.52 302.27 M 104.52 269.56 C 112.38 271.37 117.91 278.14 117.91 285.91 C 117.91 293.68 112.38 300.45 104.52 302.27 M 104.52 269.56 C 96.67 271.37 91.14 278.14 91.14 285.91 C 91.14 293.68 96.67 300.45 104.52 302.27 M 89.48 277.97 L 119.57 277.97 M 89.38 295.72 L 119.28 295.91" fill="none" stroke="#1d1d1d" stroke-width="1.87" stroke-miterlimit="10" pointer-events="all"/><path d="M 106.89 259.6 C 113.02 260.08 117.85 265.15 117.85 271.32 C 117.85 277.61 112.84 282.73 106.54 283.05 L 106.54 285.46 C 108.26 285.73 109.58 287.19 109.58 288.96 C 109.58 289.39 109.5 289.81 109.35 290.19 L 111.58 291.47 C 115.03 286.33 121.99 284.65 127.48 287.77 C 132.95 290.89 134.97 297.65 132.21 303.15 C 136 295.88 133.37 286.88 126.11 282.75 C 124.3 281.72 122.36 281.09 120.41 280.83 C 121.16 279.03 121.57 277.05 121.57 274.99 C 121.58 266.8 115.08 260.09 106.89 259.6 L 106.89 259.6 Z M 104.89 259.61 C 96.74 260.14 90.29 266.83 90.29 275 C 90.29 277 90.67 278.92 91.38 280.68 C 89.48 280.96 87.61 281.58 85.85 282.58 C 78.64 286.68 76 295.59 79.68 302.83 C 77.02 297.35 79.06 290.68 84.48 287.6 C 90 284.45 97.01 286.17 100.43 291.39 L 102.59 290.16 C 102.45 289.79 102.38 289.39 102.38 288.97 C 102.38 287.28 103.59 285.86 105.2 285.51 L 105.2 283.05 C 98.96 282.67 94.01 277.57 94.01 271.33 C 94.01 265.18 98.8 260.13 104.89 259.61 L 104.89 259.61 Z M 105.59 274.37 C 102.44 274.45 99.54 275.51 97.15 277.22 C 97.34 277.5 97.55 277.77 97.76 278.02 C 97.98 278.28 98.21 278.53 98.44 278.76 C 98.68 278.99 98.93 279.23 99.19 279.44 C 99.38 279.59 99.59 279.73 99.8 279.88 C 101.55 278.74 103.66 278.07 105.93 278.07 C 108.2 278.07 110.3 278.74 112.06 279.88 C 112.26 279.73 112.47 279.6 112.66 279.44 C 112.92 279.22 113.17 279 113.41 278.76 C 113.65 278.53 113.88 278.28 114.09 278.02 C 114.31 277.77 114.52 277.5 114.7 277.22 C 112.23 275.44 109.2 274.37 105.93 274.37 C 105.85 274.37 105.77 274.37 105.7 274.37 C 105.66 274.37 105.63 274.37 105.59 274.37 L 105.59 274.37 Z M 91.24 287.33 C 90.91 290.33 91.49 293.44 93.13 296.25 C 94.77 299.05 97.21 301.1 100.02 302.31 C 100.17 302.01 100.3 301.7 100.42 301.39 C 100.53 301.07 100.64 300.76 100.73 300.43 C 100.82 300.11 100.89 299.78 100.95 299.45 C 100.99 299.21 101.01 298.97 101.03 298.72 C 99.15 297.79 97.51 296.32 96.38 294.39 C 95.24 292.46 94.78 290.33 94.9 288.26 C 94.67 288.15 94.44 288.05 94.21 287.96 C 93.89 287.85 93.57 287.74 93.25 287.66 C 92.92 287.57 92.59 287.51 92.25 287.45 C 91.91 287.4 91.58 287.35 91.24 287.33 L 91.24 287.33 Z M 120.73 287.51 C 120.39 287.53 120.05 287.57 119.72 287.63 C 119.39 287.68 119.05 287.75 118.73 287.84 C 118.4 287.93 118.07 288.03 117.76 288.14 C 117.53 288.23 117.3 288.33 117.07 288.44 C 117.19 290.51 116.73 292.64 115.59 294.57 C 114.45 296.51 112.81 297.97 110.94 298.9 C 110.96 299.14 110.98 299.39 111.03 299.64 C 111.08 299.97 111.16 300.29 111.24 300.62 C 111.33 300.94 111.43 301.26 111.55 301.57 C 111.67 301.88 111.8 302.19 111.95 302.49 C 114.75 301.27 117.2 299.22 118.83 296.42 C 120.48 293.63 121.06 290.5 120.73 287.51 L 120.73 287.51 Z M 103.27 291.29 L 101.1 292.53 C 103.89 298.05 101.89 304.83 96.4 307.95 C 90.95 311.06 84.02 309.42 80.56 304.34 C 85.05 311.18 94.25 313.42 101.49 309.3 C 103.25 308.3 104.72 307.02 105.91 305.54 C 107.12 307.09 108.65 308.43 110.48 309.48 C 117.72 313.6 126.93 311.35 131.43 304.5 C 127.97 309.6 121.03 311.25 115.56 308.14 C 110.04 305 108.05 298.16 110.92 292.62 L 108.66 291.34 C 108 292.06 107.05 292.51 105.99 292.51 C 104.9 292.51 103.93 292.04 103.27 291.29 L 103.27 291.29 Z" fill="#f8cecc" stroke="#e2332a" stroke-width="1.1" stroke-miterlimit="10" pointer-events="all"/><path d="M 647 475.24 L 573.93 475.24 L 574 486" fill="none" stroke="#b85450" stroke-width="4" stroke-miterlimit="10" pointer-events="stroke"/><path d="M 647 442.84 C 647 438.64 650.31 435.24 654.39 435.24 L 679.68 435.24 C 683.74 435.28 687 438.67 687 442.84 L 687 507.64 C 687 511.81 683.74 515.2 679.68 515.24 L 654.39 515.24 C 650.31 515.24 647 511.84 647 507.64 Z" fill="#f8cecc" stroke="#e2332a" stroke-width="1.56" stroke-miterlimit="10" pointer-events="all"/><path d="M 648.56 442.44 L 648.56 508.04 L 685.44 508.14 L 685.44 442.44 Z" fill="#ffffff" stroke="none" pointer-events="all"/><rect x="662.18" y="510.28" width="9.57" height="2.88" rx="1.44" ry="1.44" fill="#ffffff" stroke="none" pointer-events="all"/><path d="M 205 389.99 L 185.66 390 L 185.5 392" fill="none" stroke="#666666" stroke-width="4" stroke-miterlimit="10" pointer-events="stroke"/><path d="M 171 411.24 L 171 387.87 L 175.25 387.87 L 175.25 381.49 C 175.25 374.45 180.96 368.74 188 368.74 C 195.04 368.74 200.75 374.45 200.75 381.49 L 196.5 381.49 C 196.5 376.8 192.69 372.99 188 372.99 C 183.31 372.99 179.5 376.8 179.5 381.49 L 179.5 387.87 L 205 387.87 L 205 411.24 Z" fill="#f8cecc" stroke="#e2332a" stroke-miterlimit="10" pointer-events="all"/><rect x="336" y="384.14" width="92" height="23.36" rx="4.67" ry="4.67" fill="#c3c3c3" stroke="#1d1d1d" stroke-width="1.84" pointer-events="all"/><rect x="345.2" y="407.5" width="73.6" height="3.74" fill="#c3c3c3" stroke="#1d1d1d" stroke-width="1.84" pointer-events="all"/><path d="M 397.64 384.14 L 398.1 342.08 C 398.36 341.69 398.79 341.45 399.25 341.45 C 399.71 341.45 400.14 341.69 400.4 342.08 L 400.86 384.14 Z" fill="#c3c3c3" stroke="#1d1d1d" stroke-width="1.84" stroke-miterlimit="10" pointer-events="all"/><ellipse cx="416.96" cy="395.82" rx="7.36" ry="7.476635514018692" fill="#ffffff" stroke="none" pointer-events="all"/><ellipse cx="405" cy="388.81" rx="1.84" ry="1.869158878504673" fill="#ffffff" stroke="none" pointer-events="all"/><ellipse cx="405" cy="402.83" rx="1.84" ry="1.869158878504673" fill="#ffffff" stroke="none" pointer-events="all"/><ellipse cx="405" cy="395.82" rx="1.84" ry="1.869158878504673" fill="#ffffff" stroke="none" pointer-events="all"/><ellipse cx="396.26" cy="400.03" rx="1.84" ry="1.869158878504673" fill="#ffffff" stroke="none" pointer-events="all"/><ellipse cx="388.44" cy="400.03" rx="1.84" ry="1.869158878504673" fill="#ffffff" stroke="none" pointer-events="all"/><ellipse cx="380.62" cy="400.03" rx="1.84" ry="1.869158878504673" fill="#ffffff" stroke="none" pointer-events="all"/><ellipse cx="372.8" cy="400.03" rx="1.84" ry="1.869158878504673" fill="#ffffff" stroke="none" pointer-events="all"/><ellipse cx="364.98" cy="400.03" rx="1.84" ry="1.869158878504673" fill="#ffffff" stroke="none" pointer-events="all"/><ellipse cx="357.16" cy="400.03" rx="1.84" ry="1.869158878504673" fill="#ffffff" stroke="none" pointer-events="all"/><ellipse cx="349.34" cy="400.03" rx="1.84" ry="1.869158878504673" fill="#ffffff" stroke="none" pointer-events="all"/><ellipse cx="341.52" cy="400.03" rx="1.84" ry="1.869158878504673" fill="#ffffff" stroke="none" pointer-events="all"/><path d="M 338.76 390.68 L 344.28 390.68 L 344.28 393.48 L 342.44 393.48 L 342.44 394.42 L 340.6 394.42 L 340.6 393.48 L 338.76 393.48 Z M 346.58 390.68 L 352.1 390.68 L 352.1 393.48 L 350.26 393.48 L 350.26 394.42 L 348.42 394.42 L 348.42 393.48 L 346.58 393.48 Z M 354.4 390.68 L 359.92 390.68 L 359.92 393.48 L 358.08 393.48 L 358.08 394.42 L 356.24 394.42 L 356.24 393.48 L 354.4 393.48 Z M 362.22 390.68 L 367.74 390.68 L 367.74 393.48 L 365.9 393.48 L 365.9 394.42 L 364.06 394.42 L 364.06 393.48 L 362.22 393.48 Z M 370.04 390.68 L 375.56 390.68 L 375.56 393.48 L 373.72 393.48 L 373.72 394.42 L 371.88 394.42 L 371.88 393.48 L 370.04 393.48 Z M 377.86 390.68 L 383.38 390.68 L 383.38 393.48 L 381.54 393.48 L 381.54 394.42 L 379.7 394.42 L 379.7 393.48 L 377.86 393.48 Z M 385.68 390.68 L 391.2 390.68 L 391.2 393.48 L 389.36 393.48 L 389.36 394.42 L 387.52 394.42 L 387.52 393.48 L 385.68 393.48 Z M 393.5 390.68 L 399.02 390.68 L 399.02 393.48 L 397.18 393.48 L 397.18 394.42 L 395.34 394.42 L 395.34 393.48 L 393.5 393.48 Z" fill="#ffffff" stroke="none" pointer-events="all"/><rect x="336" y="331.24" width="0" height="0" fill="none" stroke="#1d1d1d" stroke-width="1.84" pointer-events="all"/><path d="M 418.8 393.95 L 420.64 395.82 L 418.8 397.69 M 412.36 395.82 L 420.64 395.82" fill="none" stroke="#1d1d1d" stroke-width="1.84" stroke-miterlimit="10" pointer-events="all"/><path d="M 403.9 336.75 C 405.92 339.87 405.92 343.92 403.9 347.03 L 402.52 346.1 C 404.05 343.65 404.05 340.51 402.52 338.06 Z M 407.58 333.95 C 411.25 338.69 411.25 345.37 407.58 350.12 L 406.2 349 C 409.33 344.94 409.33 339.23 406.2 335.17 Z M 411.26 331.24 C 416.81 337.33 416.81 346.74 411.26 352.83 L 409.88 351.71 C 414.96 346.29 414.96 337.78 409.88 332.36 Z M 394.7 336.75 C 392.67 339.87 392.67 343.92 394.7 347.03 L 396.08 346.1 C 394.54 343.65 394.54 340.51 396.08 338.06 Z M 391.02 333.95 C 387.3 338.71 387.3 345.45 391.02 350.21 L 392.4 348.9 C 389.36 344.88 389.36 339.28 392.4 335.26 Z M 387.34 331.33 C 381.84 337.41 381.84 346.75 387.34 352.83 L 388.72 351.71 C 383.69 346.3 383.69 337.86 388.72 332.45 Z" fill="#c3c3c3" stroke="#1d1d1d" stroke-width="1.84" stroke-miterlimit="10" pointer-events="all"/><path d="M 366 461.33 L 382.07 461.45 L 382 411.24" fill="none" stroke="#e2332a" stroke-width="4" stroke-miterlimit="10" pointer-events="stroke"/><path d="M 442 504 L 483.86 504.07 L 483.84 505.2" fill="none" stroke="#b85450" stroke-width="4" stroke-miterlimit="10" pointer-events="stroke"/><path d="M 342 477.33 C 310 477.33 302 504 327.6 509.33 C 302 521.07 330.8 546.67 351.6 536 C 366 557.34 414 557.34 430 536 C 462 536 462 514.67 442 504 C 462 482.66 430 461.33 402 472 C 382 455.99 350 455.99 342 477.33 Z" fill="#c3c3c3" stroke="#e2332a" stroke-width="2" stroke-miterlimit="10" pointer-events="all"/><rect x="482" y="482.9" width="92" height="23.36" rx="4.67" ry="4.67" fill="#f8cecc" stroke="#e2332a" stroke-width="1.84" pointer-events="all"/><rect x="491.2" y="506.26" width="73.6" height="3.74" fill="#f8cecc" stroke="#e2332a" stroke-width="1.84" pointer-events="all"/><path d="M 543.64 482.9 L 544.1 440.84 C 544.36 440.45 544.79 440.21 545.25 440.21 C 545.71 440.21 546.14 440.45 546.4 440.84 L 546.86 482.9 Z" fill="#f8cecc" stroke="#e2332a" stroke-width="1.84" stroke-miterlimit="10" pointer-events="all"/><ellipse cx="562.96" cy="494.58" rx="7.36" ry="7.476635514018692" fill="#ffffff" stroke="none" pointer-events="all"/><ellipse cx="551" cy="487.57" rx="1.84" ry="1.869158878504673" fill="#ffffff" stroke="none" pointer-events="all"/><ellipse cx="551" cy="501.59" rx="1.84" ry="1.869158878504673" fill="#ffffff" stroke="none" pointer-events="all"/><ellipse cx="551" cy="494.58" rx="1.84" ry="1.869158878504673" fill="#ffffff" stroke="none" pointer-events="all"/><ellipse cx="542.26" cy="498.79" rx="1.84" ry="1.869158878504673" fill="#ffffff" stroke="none" pointer-events="all"/><ellipse cx="534.44" cy="498.79" rx="1.84" ry="1.869158878504673" fill="#ffffff" stroke="none" pointer-events="all"/><ellipse cx="526.62" cy="498.79" rx="1.84" ry="1.869158878504673" fill="#ffffff" stroke="none" pointer-events="all"/><ellipse cx="518.8" cy="498.79" rx="1.84" ry="1.869158878504673" fill="#ffffff" stroke="none" pointer-events="all"/><ellipse cx="510.98" cy="498.79" rx="1.84" ry="1.869158878504673" fill="#ffffff" stroke="none" pointer-events="all"/><ellipse cx="503.16" cy="498.79" rx="1.84" ry="1.869158878504673" fill="#ffffff" stroke="none" pointer-events="all"/><ellipse cx="495.34" cy="498.79" rx="1.84" ry="1.869158878504673" fill="#ffffff" stroke="none" pointer-events="all"/><ellipse cx="487.52" cy="498.79" rx="1.84" ry="1.869158878504673" fill="#ffffff" stroke="none" pointer-events="all"/><path d="M 484.76 489.44 L 490.28 489.44 L 490.28 492.24 L 488.44 492.24 L 488.44 493.18 L 486.6 493.18 L 486.6 492.24 L 484.76 492.24 Z M 492.58 489.44 L 498.1 489.44 L 498.1 492.24 L 496.26 492.24 L 496.26 493.18 L 494.42 493.18 L 494.42 492.24 L 492.58 492.24 Z M 500.4 489.44 L 505.92 489.44 L 505.92 492.24 L 504.08 492.24 L 504.08 493.18 L 502.24 493.18 L 502.24 492.24 L 500.4 492.24 Z M 508.22 489.44 L 513.74 489.44 L 513.74 492.24 L 511.9 492.24 L 511.9 493.18 L 510.06 493.18 L 510.06 492.24 L 508.22 492.24 Z M 516.04 489.44 L 521.56 489.44 L 521.56 492.24 L 519.72 492.24 L 519.72 493.18 L 517.88 493.18 L 517.88 492.24 L 516.04 492.24 Z M 523.86 489.44 L 529.38 489.44 L 529.38 492.24 L 527.54 492.24 L 527.54 493.18 L 525.7 493.18 L 525.7 492.24 L 523.86 492.24 Z M 531.68 489.44 L 537.2 489.44 L 537.2 492.24 L 535.36 492.24 L 535.36 493.18 L 533.52 493.18 L 533.52 492.24 L 531.68 492.24 Z M 539.5 489.44 L 545.02 489.44 L 545.02 492.24 L 543.18 492.24 L 543.18 493.18 L 541.34 493.18 L 541.34 492.24 L 539.5 492.24 Z" fill="#ffffff" stroke="none" pointer-events="all"/><rect x="482" y="430" width="0" height="0" fill="none" stroke="#e2332a" stroke-width="1.84" pointer-events="all"/><path d="M 564.8 492.71 L 566.64 494.58 L 564.8 496.45 M 558.36 494.58 L 566.64 494.58" fill="none" stroke="#e2332a" stroke-width="1.84" stroke-miterlimit="10" pointer-events="all"/><path d="M 549.9 435.51 C 551.92 438.63 551.92 442.68 549.9 445.79 L 548.52 444.86 C 550.05 442.41 550.05 439.27 548.52 436.82 Z M 553.58 432.71 C 557.25 437.45 557.25 444.13 553.58 448.88 L 552.2 447.76 C 555.33 443.7 555.33 437.99 552.2 433.93 Z M 557.26 430 C 562.81 436.09 562.81 445.5 557.26 451.59 L 555.88 450.47 C 560.96 445.05 560.96 436.54 555.88 431.12 Z M 540.7 435.51 C 538.67 438.63 538.67 442.68 540.7 445.79 L 542.08 444.86 C 540.54 442.41 540.54 439.27 542.08 436.82 Z M 537.02 432.71 C 533.3 437.47 533.3 444.21 537.02 448.97 L 538.4 447.66 C 535.36 443.64 535.36 438.04 538.4 434.02 Z M 533.34 430.09 C 527.84 436.17 527.84 445.51 533.34 451.59 L 534.72 450.47 C 529.69 445.06 529.69 436.62 534.72 431.21 Z" fill="#f8cecc" stroke="#e2332a" stroke-width="1.84" stroke-miterlimit="10" pointer-events="all"/><path d="M 685.44 462.58 C 689.98 462.94 693.56 466.69 693.56 471.26 C 693.56 475.92 689.85 479.71 685.18 479.95 L 685.18 481.73 C 686.46 481.93 687.43 483.02 687.43 484.33 C 687.43 484.65 687.37 484.96 687.26 485.24 L 688.92 486.18 C 691.47 482.38 696.62 481.14 700.69 483.45 C 704.74 485.76 706.24 490.76 704.19 494.84 C 707 489.45 705.05 482.79 699.68 479.73 C 698.33 478.96 696.9 478.5 695.45 478.3 C 696.01 476.97 696.31 475.51 696.31 473.98 C 696.32 467.91 691.5 462.94 685.44 462.58 L 685.44 462.58 Z M 683.96 462.59 C 677.92 462.98 673.14 467.94 673.14 473.99 C 673.14 475.47 673.43 476.89 673.95 478.2 C 672.55 478.4 671.16 478.86 669.85 479.61 C 664.52 482.64 662.56 489.24 665.28 494.6 C 663.32 490.54 664.82 485.6 668.84 483.32 C 672.93 480.99 678.12 482.26 680.66 486.13 L 682.25 485.22 C 682.15 484.94 682.1 484.64 682.1 484.33 C 682.1 483.08 682.99 482.03 684.18 481.77 L 684.18 479.95 C 679.57 479.67 675.9 475.89 675.9 471.27 C 675.9 466.71 679.45 462.97 683.96 462.59 L 683.96 462.59 Z M 684.47 473.52 C 682.14 473.58 679.99 474.36 678.23 475.63 C 678.37 475.84 678.52 476.04 678.68 476.23 C 678.84 476.42 679.01 476.6 679.18 476.77 C 679.36 476.95 679.55 477.12 679.74 477.27 C 679.88 477.39 680.03 477.49 680.18 477.6 C 681.49 476.75 683.05 476.26 684.73 476.26 C 686.41 476.26 687.96 476.75 689.27 477.6 C 689.42 477.49 689.57 477.39 689.71 477.27 C 689.91 477.11 690.09 476.95 690.27 476.77 C 690.44 476.6 690.62 476.42 690.77 476.23 C 690.93 476.04 691.09 475.84 691.22 475.63 C 689.4 474.31 687.15 473.52 684.73 473.52 C 684.67 473.52 684.61 473.52 684.56 473.52 C 684.53 473.52 684.5 473.52 684.47 473.52 L 684.47 473.52 Z M 673.85 483.12 C 673.6 485.34 674.03 487.65 675.25 489.72 C 676.46 491.8 678.27 493.32 680.35 494.22 C 680.46 494 680.56 493.77 680.64 493.53 C 680.73 493.3 680.81 493.07 680.87 492.83 C 680.94 492.59 680.99 492.35 681.04 492.1 C 681.07 491.92 681.08 491.74 681.1 491.56 C 679.71 490.87 678.49 489.78 677.65 488.35 C 676.81 486.92 676.47 485.34 676.56 483.81 C 676.39 483.73 676.22 483.66 676.05 483.59 C 675.81 483.5 675.58 483.43 675.33 483.37 C 675.09 483.3 674.84 483.25 674.6 483.21 C 674.35 483.17 674.1 483.14 673.85 483.12 L 673.85 483.12 Z M 695.69 483.25 C 695.44 483.27 695.19 483.3 694.94 483.34 C 694.69 483.38 694.45 483.44 694.21 483.5 C 693.96 483.56 693.72 483.64 693.49 483.72 C 693.32 483.79 693.15 483.86 692.98 483.94 C 693.07 485.47 692.72 487.05 691.88 488.49 C 691.04 489.92 689.83 491 688.44 491.69 C 688.45 491.87 688.47 492.06 688.5 492.24 C 688.54 492.48 688.6 492.72 688.66 492.96 C 688.73 493.2 688.8 493.44 688.89 493.67 C 688.98 493.9 689.07 494.13 689.19 494.35 C 691.26 493.45 693.07 491.93 694.29 489.86 C 695.5 487.78 695.93 485.47 695.69 483.25 L 695.69 483.25 Z M 682.76 486.06 L 681.15 486.98 C 683.22 491.06 681.73 496.08 677.67 498.39 C 673.63 500.7 668.5 499.48 665.93 495.72 C 669.27 500.79 676.08 502.45 681.44 499.39 C 682.74 498.66 683.83 497.7 684.72 496.61 C 685.61 497.76 686.74 498.75 688.1 499.53 C 693.46 502.58 700.29 500.91 703.61 495.84 C 701.05 499.62 695.91 500.84 691.86 498.54 C 687.78 496.21 686.3 491.14 688.42 487.04 L 686.75 486.09 C 686.26 486.62 685.55 486.96 684.77 486.96 C 683.97 486.96 683.25 486.61 682.76 486.06 L 682.76 486.06 Z" fill="#f8cecc" stroke="#e2332a" stroke-miterlimit="10" pointer-events="all"/><path d="M 687.77 114.72 C 687.65 109.28 689.79 104.02 693.71 100.12 C 697.64 96.23 703.01 94.02 708.63 94 C 721.16 94.12 731.37 103.33 731.83 114.93 C 732.3 120.27 730.41 125.55 726.59 129.55 C 722.78 133.55 717.37 135.91 711.64 136.08 C 698.96 136.32 688.38 126.85 687.77 114.72 Z M 664.9 166 C 665.4 155.88 669.81 146.44 677.05 140 C 682.79 135.13 690.78 134.83 696.82 139.27 C 700.26 141.45 704.04 143.21 708.04 144.49 C 712.16 146.02 716.66 145.76 720.61 143.76 C 722.77 142.87 724.68 141.58 726.22 140 C 727.74 138.44 730.38 138.12 732.33 139.27 C 735.78 141.25 738.87 144.75 741.3 149.41 C 743.64 154.7 744.86 160.32 744.9 165.99 Z" fill="#f8cecc" stroke="#e2332a" stroke-width="4" stroke-miterlimit="10" pointer-events="all"/></g></svg>