<svg 
 xmlns="http://www.w3.org/2000/svg"
 xmlns:xlink="http://www.w3.org/1999/xlink"
 width="571px" height="393px">
<defs>
<linearGradient id="PSgrad_0" x1="0%" x2="0%" y1="100%" y2="0%">
  <stop offset="0%" stop-color="rgb(96,192,241)" stop-opacity="1" />
  <stop offset="100%" stop-color="rgb(32,76,96)" stop-opacity="1" />
</linearGradient>

</defs>
<path fill-rule="evenodd"  fill="rgb(39, 39, 39)"
 d="M531.489,233.324 C531.561,233.537 531.609,233.762 531.609,234.000 C531.609,235.164 530.665,236.108 529.501,236.108 L211.000,236.037 L211.000,342.000 L378.000,342.000 C379.105,342.000 380.000,342.895 380.000,344.000 C380.000,345.105 379.105,346.000 378.000,346.000 L209.000,346.000 C207.895,346.000 207.000,345.105 207.000,344.000 C207.000,343.826 207.029,343.661 207.071,343.500 C207.029,343.339 207.000,343.174 207.000,343.000 L207.000,236.036 L47.000,236.000 C45.895,236.000 45.000,235.105 45.000,234.000 C45.000,232.895 45.895,232.000 47.000,232.000 L207.000,231.964 L207.000,149.000 C207.000,147.895 207.895,147.000 209.000,147.000 C210.105,147.000 211.000,147.895 211.000,149.000 L211.000,231.963 L378.237,231.926 C378.091,231.648 378.000,231.336 378.000,231.000 L378.000,148.000 C378.000,146.895 378.895,146.000 380.000,146.000 C381.105,146.000 382.000,146.895 382.000,148.000 L382.000,231.000 C382.000,231.336 381.909,231.647 381.763,231.925 L528.000,231.892 L528.000,149.000 C528.000,147.895 528.895,147.000 530.000,147.000 C531.105,147.000 532.000,147.895 532.000,149.000 L532.000,232.000 C532.000,232.510 531.803,232.971 531.489,233.324 ZM209.000,124.000 L40.000,124.000 C38.895,124.000 38.000,123.105 38.000,122.000 C38.000,120.895 38.895,120.000 40.000,120.000 L209.000,120.000 C210.105,120.000 211.000,120.895 211.000,122.000 C211.000,123.105 210.105,124.000 209.000,124.000 Z"/>
<path fill-rule="evenodd"  fill="url(#PSgrad_0)"
 d="M175.000,199.000 L242.000,199.000 C244.209,199.000 246.000,200.791 246.000,203.000 L246.000,261.000 C246.000,263.209 244.209,265.000 242.000,265.000 L175.000,265.000 C172.791,265.000 171.000,263.209 171.000,261.000 L171.000,203.000 C171.000,200.791 172.791,199.000 175.000,199.000 Z"/>
<path fill-rule="evenodd"  fill="rgb(240, 240, 240)"
 d="M243.918,264.879 L173.285,264.879 C169.881,264.879 167.122,262.120 167.122,258.716 L167.122,250.782 C167.122,247.378 169.881,244.619 173.285,244.619 L243.918,244.619 C247.321,244.619 250.080,247.378 250.080,250.782 L250.080,258.716 C250.080,262.120 247.321,264.879 243.918,264.879 ZM243.918,241.725 L173.285,241.725 C169.881,241.725 167.122,238.966 167.122,235.562 L167.122,227.628 C167.122,224.224 169.881,221.465 173.285,221.465 L243.918,221.465 C247.321,221.465 250.080,224.224 250.080,227.628 L250.080,235.562 C250.080,238.966 247.321,241.725 243.918,241.725 ZM243.918,218.892 L173.285,218.892 C169.881,218.892 167.122,216.133 167.122,212.730 L167.122,204.795 C167.122,201.391 169.881,198.632 173.285,198.632 L243.918,198.632 C247.321,198.632 250.080,201.391 250.080,204.795 L250.080,212.730 C250.080,216.133 247.321,218.892 243.918,218.892 Z"/>
<path fill-rule="evenodd"  fill="url(#PSgrad_0)"
 d="M175.000,88.000 L242.000,88.000 C244.209,88.000 246.000,89.791 246.000,92.000 L246.000,150.000 C246.000,152.209 244.209,154.000 242.000,154.000 L175.000,154.000 C172.791,154.000 171.000,152.209 171.000,150.000 L171.000,92.000 C171.000,89.791 172.791,88.000 175.000,88.000 Z"/>
<path fill-rule="evenodd"  fill="rgb(240, 240, 240)"
 d="M243.918,153.879 L173.285,153.879 C169.881,153.879 167.122,151.120 167.122,147.716 L167.122,139.782 C167.122,136.378 169.881,133.619 173.285,133.619 L243.918,133.619 C247.321,133.619 250.080,136.378 250.080,139.782 L250.080,147.716 C250.080,151.120 247.321,153.879 243.918,153.879 ZM243.918,130.725 L173.285,130.725 C169.881,130.725 167.122,127.966 167.122,124.562 L167.122,116.627 C167.122,113.224 169.881,110.465 173.285,110.465 L243.918,110.465 C247.321,110.465 250.080,113.224 250.080,116.627 L250.080,124.562 C250.080,127.966 247.321,130.725 243.918,130.725 ZM243.918,107.892 L173.285,107.892 C169.881,107.892 167.122,105.133 167.122,101.729 L167.122,93.795 C167.122,90.391 169.881,87.632 173.285,87.632 L243.918,87.632 C247.321,87.632 250.080,90.391 250.080,93.795 L250.080,101.729 C250.080,105.133 247.321,107.892 243.918,107.892 Z"/>
<path fill-rule="evenodd"  fill="url(#PSgrad_0)"
 d="M175.000,310.000 L242.000,310.000 C244.209,310.000 246.000,311.791 246.000,314.000 L246.000,372.000 C246.000,374.209 244.209,376.000 242.000,376.000 L175.000,376.000 C172.791,376.000 171.000,374.209 171.000,372.000 L171.000,314.000 C171.000,311.791 172.791,310.000 175.000,310.000 Z"/>
<path fill-rule="evenodd"  fill="rgb(240, 240, 240)"
 d="M243.918,375.879 L173.285,375.879 C169.881,375.879 167.122,373.120 167.122,369.716 L167.122,361.782 C167.122,358.378 169.881,355.619 173.285,355.619 L243.918,355.619 C247.321,355.619 250.080,358.378 250.080,361.782 L250.080,369.716 C250.080,373.120 247.321,375.879 243.918,375.879 ZM243.918,352.725 L173.285,352.725 C169.881,352.725 167.122,349.966 167.122,346.562 L167.122,338.628 C167.122,335.224 169.881,332.465 173.285,332.465 L243.918,332.465 C247.321,332.465 250.080,335.224 250.080,338.628 L250.080,346.562 C250.080,349.966 247.321,352.725 243.918,352.725 ZM243.918,329.892 L173.285,329.892 C169.881,329.892 167.122,327.133 167.122,323.730 L167.122,315.795 C167.122,312.391 169.881,309.632 173.285,309.632 L243.918,309.632 C247.321,309.632 250.080,312.391 250.080,315.795 L250.080,323.730 C250.080,327.133 247.321,329.892 243.918,329.892 Z"/>
<path fill-rule="evenodd"  fill="url(#PSgrad_0)"
 d="M8.000,97.000 L89.000,97.000 L89.000,145.000 L8.000,145.000 L8.000,97.000 Z"/>
<path fill-rule="evenodd"  fill="rgb(240, 240, 240)"
 d="M48.490,154.061 C26.128,154.061 8.000,149.529 8.000,143.939 L8.000,133.816 C8.000,132.945 8.460,132.102 9.287,131.296 C13.797,135.657 29.638,138.877 48.490,138.877 C67.341,138.877 83.183,135.657 87.692,131.296 C88.520,132.102 88.979,132.945 88.979,133.816 L88.979,143.939 C88.979,149.529 70.852,154.061 48.490,154.061 ZM48.490,136.347 C26.128,136.347 8.000,131.815 8.000,126.224 L8.000,116.102 C8.000,115.889 8.035,115.679 8.087,115.469 C8.035,115.260 8.000,115.049 8.000,114.837 C8.000,113.966 8.460,113.123 9.287,112.316 C13.797,116.677 29.638,119.898 48.490,119.898 C67.341,119.898 83.183,116.677 87.692,112.316 C88.520,113.123 88.979,113.966 88.979,114.837 C88.979,115.049 88.944,115.260 88.893,115.469 C88.944,115.679 88.979,115.889 88.979,116.102 L88.979,126.224 C88.979,131.815 70.852,136.347 48.490,136.347 ZM48.490,117.367 C26.128,117.367 8.000,112.835 8.000,107.245 L8.000,97.122 C8.000,91.532 26.128,87.000 48.490,87.000 C70.852,87.000 88.979,91.532 88.979,97.122 L88.979,107.245 C88.979,112.835 70.852,117.367 48.490,117.367 Z"/>
<path fill-rule="evenodd"  fill="url(#PSgrad_0)"
 d="M343.829,89.577 L410.666,89.577 C413.427,89.577 415.666,91.816 415.666,94.577 L415.666,129.398 C415.666,132.160 413.427,134.398 410.666,134.398 L343.829,134.398 C341.068,134.398 338.829,132.160 338.829,129.398 L338.829,94.577 C338.829,91.816 341.068,89.577 343.829,89.577 Z"/>
<path fill-rule="evenodd"  fill="rgb(240, 240, 240)"
 d="M412.495,136.228 L342.000,136.228 C339.238,136.228 337.000,133.989 337.000,131.228 L337.000,92.748 C337.000,89.986 339.238,87.748 342.000,87.748 L412.495,87.748 C415.257,87.748 417.495,89.986 417.495,92.748 L417.495,131.228 C417.495,133.989 415.257,136.228 412.495,136.228 ZM415.666,94.577 C415.666,91.816 413.427,89.577 410.666,89.577 L343.829,89.577 C341.068,89.577 338.829,91.816 338.829,94.577 L338.829,129.398 C338.829,132.160 341.068,134.398 343.829,134.398 L410.666,134.398 C413.427,134.398 415.666,132.160 415.666,129.398 L415.666,94.577 ZM408.837,132.569 L345.659,132.569 C342.898,132.569 340.659,130.330 340.659,127.569 L340.659,96.406 C340.659,93.645 342.898,91.407 345.659,91.407 L408.837,91.407 C411.598,91.407 413.836,93.645 413.836,96.406 L413.836,127.569 C413.836,130.330 411.598,132.569 408.837,132.569 ZM366.957,141.254 C366.073,141.254 365.356,140.537 365.356,139.653 C365.356,138.769 366.073,138.052 366.957,138.052 L390.282,138.052 C391.167,138.052 391.883,138.769 391.883,139.653 C391.883,140.537 391.167,141.254 390.282,141.254 L366.957,141.254 ZM358.632,143.119 L398.608,143.119 C399.630,143.673 399.436,143.568 400.458,144.122 L405.604,147.826 C405.604,148.510 404.580,149.064 403.317,149.064 L353.922,149.064 C352.659,149.064 351.636,148.510 351.636,147.826 L356.781,144.122 C357.803,143.568 357.610,143.673 358.632,143.119 Z"/>
<path fill-rule="evenodd"  fill="url(#PSgrad_0)"
 d="M496.829,88.577 L563.666,88.577 C566.427,88.577 568.666,90.816 568.666,93.577 L568.666,128.398 C568.666,131.160 566.427,133.398 563.666,133.398 L496.829,133.398 C494.068,133.398 491.829,131.160 491.829,128.398 L491.829,93.577 C491.829,90.816 494.068,88.577 496.829,88.577 Z"/>
<path fill-rule="evenodd"  fill="rgb(240, 240, 240)"
 d="M565.495,135.228 L495.000,135.228 C492.239,135.228 490.000,132.989 490.000,130.228 L490.000,91.748 C490.000,88.986 492.239,86.748 495.000,86.748 L565.495,86.748 C568.257,86.748 570.495,88.986 570.495,91.748 L570.495,130.228 C570.495,132.989 568.257,135.228 565.495,135.228 ZM568.666,93.577 C568.666,90.816 566.427,88.577 563.666,88.577 L496.829,88.577 C494.068,88.577 491.829,90.816 491.829,93.577 L491.829,128.398 C491.829,131.160 494.068,133.398 496.829,133.398 L563.666,133.398 C566.427,133.398 568.666,131.160 568.666,128.398 L568.666,93.577 ZM561.837,131.569 L498.659,131.569 C495.898,131.569 493.659,129.330 493.659,126.569 L493.659,95.407 C493.659,92.645 495.898,90.407 498.659,90.407 L561.837,90.407 C564.598,90.407 566.837,92.645 566.837,95.407 L566.837,126.569 C566.837,129.330 564.598,131.569 561.837,131.569 ZM519.957,140.254 C519.073,140.254 518.356,139.537 518.356,138.653 C518.356,137.769 519.073,137.052 519.957,137.052 L543.282,137.052 C544.167,137.052 544.883,137.769 544.883,138.653 C544.883,139.537 544.167,140.254 543.282,140.254 L519.957,140.254 ZM511.632,142.119 L551.608,142.119 C552.630,142.673 552.436,142.568 553.458,143.122 L558.604,146.826 C558.604,147.510 557.580,148.064 556.317,148.064 L506.922,148.064 C505.659,148.064 504.636,147.510 504.636,146.826 L509.781,143.122 C510.803,142.568 510.610,142.673 511.632,142.119 Z"/>
<path fill-rule="evenodd"  fill="url(#PSgrad_0)"
 d="M395.488,310.714 L410.000,325.366 L410.000,366.000 C410.000,370.418 406.418,374.000 402.000,374.000 L357.000,374.000 C352.582,374.000 349.000,370.418 349.000,366.000 L349.000,318.706 C349.000,314.288 352.582,310.706 357.000,310.706 L402.000,310.706 C402.053,310.706 402.103,310.713 402.156,310.714 L395.488,310.714 Z"/>
<path fill-rule="evenodd"  fill="rgb(240, 240, 240)"
 d="M410.692,366.000 C410.692,370.418 407.110,374.000 402.692,374.000 L357.000,374.000 C352.582,374.000 349.000,370.418 349.000,366.000 L349.000,318.706 C349.000,314.288 352.582,310.706 357.000,310.706 L402.692,310.706 C402.744,310.706 402.795,310.713 402.847,310.714 L396.012,310.714 L410.692,325.371 L410.692,366.000 ZM365.024,356.374 L394.668,356.374 L394.668,350.765 L365.024,350.765 L365.024,356.374 ZM365.024,347.561 L394.668,347.561 L394.668,341.952 L365.024,341.952 L365.024,347.561 ZM365.024,338.748 L394.668,338.748 L394.668,333.139 L365.024,333.139 L365.024,338.748 ZM394.661,312.308 L394.661,326.722 L409.097,326.722 L394.661,312.308 Z"/>
<path fill-rule="evenodd"  fill="url(#PSgrad_0)"
 d="M379.549,193.439 C400.597,193.439 417.660,210.501 417.660,231.549 C417.660,252.597 400.597,269.660 379.549,269.660 C358.501,269.660 341.439,252.597 341.439,231.549 C341.439,210.501 358.501,193.439 379.549,193.439 Z"/>
<path fill-rule="evenodd"  fill="rgb(240, 240, 240)"
 d="M379.549,269.660 C358.501,269.660 341.439,252.597 341.439,231.549 C341.439,210.501 358.501,193.439 379.549,193.439 C400.597,193.439 417.660,210.501 417.660,231.549 C417.660,252.597 400.597,269.660 379.549,269.660 ZM362.626,222.615 C361.816,223.413 361.816,224.706 362.626,225.504 L369.222,232.000 L353.000,232.000 C351.896,232.000 351.000,232.895 351.000,234.000 C351.000,235.105 351.896,236.000 353.000,236.000 L369.296,236.000 L362.626,242.568 C361.826,243.356 361.826,244.633 362.626,245.421 C363.426,246.209 364.723,246.209 365.523,245.421 L375.414,235.681 C375.873,235.228 376.037,234.618 375.969,234.028 C376.051,233.420 375.889,232.786 375.414,232.318 L365.560,222.615 C364.750,221.817 363.436,221.817 362.626,222.615 ZM390.743,219.587 L382.194,211.037 C382.119,210.661 381.972,210.297 381.681,210.005 C381.218,209.543 380.591,209.387 379.990,209.469 C379.407,209.400 378.803,209.558 378.355,210.005 C378.077,210.284 377.935,210.630 377.856,210.988 L369.293,219.551 C368.508,220.336 368.508,221.609 369.293,222.393 C370.078,223.178 371.350,223.178 372.135,222.393 L378.000,216.529 L378.000,252.264 L371.463,245.626 C370.675,244.826 369.398,244.826 368.610,245.626 C367.823,246.426 367.823,247.723 368.610,248.523 L378.351,258.414 C378.803,258.873 379.413,259.037 380.003,258.969 C380.612,259.051 381.245,258.889 381.713,258.414 L391.416,248.560 C392.214,247.750 392.214,246.436 391.416,245.626 C390.618,244.816 389.325,244.816 388.527,245.626 L382.000,252.254 L382.000,216.456 L387.937,222.393 C388.712,223.168 389.968,223.168 390.743,222.393 C391.518,221.618 391.518,220.362 390.743,219.587 ZM406.000,232.000 L390.705,232.000 L397.374,225.432 C398.174,224.644 398.174,223.367 397.374,222.579 C396.574,221.791 395.277,221.791 394.477,222.579 L384.586,232.319 C384.127,232.772 383.963,233.382 384.031,233.972 C383.949,234.580 384.111,235.214 384.586,235.682 L394.440,245.385 C395.250,246.183 396.564,246.183 397.374,245.385 C398.184,244.587 398.184,243.294 397.374,242.496 L390.778,236.000 L406.000,236.000 C407.105,236.000 408.000,235.105 408.000,234.000 C408.000,232.895 407.105,232.000 406.000,232.000 Z"/>
<path fill-rule="evenodd"  fill="url(#PSgrad_0)"
 d="M46.549,193.439 C67.597,193.439 84.660,210.501 84.660,231.549 C84.660,252.597 67.597,269.660 46.549,269.660 C25.501,269.660 8.439,252.597 8.439,231.549 C8.439,210.501 25.501,193.439 46.549,193.439 Z"/>
<path fill-rule="evenodd"  fill="rgb(240, 240, 240)"
 d="M46.549,269.660 C25.501,269.660 8.439,252.597 8.439,231.549 C8.439,210.501 25.501,193.439 46.549,193.439 C67.597,193.439 84.660,210.501 84.660,231.549 C84.660,252.597 67.597,269.660 46.549,269.660 ZM62.994,218.807 L63.056,225.300 C63.062,226.127 63.731,226.802 64.551,226.808 L65.512,226.815 C66.331,226.821 66.991,226.155 66.985,225.328 L66.881,214.567 C66.877,213.899 66.432,213.349 65.832,213.152 C65.783,212.574 65.314,212.112 64.731,212.108 L53.322,211.998 C52.708,211.993 52.214,212.492 52.218,213.111 L52.229,214.662 C52.234,215.281 52.735,215.787 53.348,215.791 L60.189,215.857 L46.548,229.623 L32.807,216.007 L39.300,215.944 C40.127,215.938 40.802,215.269 40.808,214.449 L40.815,213.488 C40.821,212.669 40.155,212.009 39.328,212.015 L28.567,212.119 C27.899,212.123 27.349,212.568 27.152,213.168 C26.574,213.217 26.112,213.685 26.108,214.269 L25.998,225.678 C25.993,226.292 26.492,226.786 27.111,226.782 L28.662,226.771 C29.281,226.766 29.787,226.265 29.791,225.652 L29.857,218.811 L43.685,232.513 L30.050,246.272 L29.985,239.475 C29.980,238.634 29.303,237.947 28.475,237.941 L27.504,237.934 C26.676,237.928 26.009,238.605 26.015,239.446 L26.120,250.390 C26.125,251.069 26.574,251.628 27.180,251.828 C27.230,252.416 27.703,252.886 28.293,252.890 L39.822,253.002 C40.442,253.007 40.942,252.500 40.937,251.870 L40.926,250.293 C40.922,249.663 40.415,249.149 39.796,249.145 L32.997,249.079 L46.575,235.377 L60.272,248.949 L53.475,249.015 C52.634,249.020 51.947,249.697 51.941,250.525 L51.934,251.496 C51.928,252.324 52.605,252.991 53.446,252.985 L64.390,252.880 C65.069,252.875 65.628,252.426 65.828,251.820 C66.416,251.770 66.886,251.297 66.890,250.707 L67.002,239.178 C67.007,238.558 66.500,238.058 65.870,238.063 L64.293,238.074 C63.663,238.078 63.149,238.584 63.145,239.205 L63.079,246.003 L49.438,232.487 L62.994,218.807 Z"/>
<path fill-rule="evenodd"  opacity="0.251" fill="rgb(0, 0, 0)"
 d="M380.772,296.276 C321.282,342.607 239.180,339.919 183.090,294.260 L59.602,390.434 C55.245,393.828 48.962,393.046 45.568,388.689 L14.286,348.524 C10.893,344.166 11.674,337.883 16.031,334.489 L139.435,238.381 C108.611,172.734 126.050,92.212 185.677,45.774 C254.851,-8.100 354.601,4.303 408.475,73.477 C462.349,142.651 449.946,242.402 380.772,296.276 ZM377.093,97.920 C336.717,46.078 261.959,36.782 210.117,77.158 C158.274,117.533 148.978,192.291 189.354,244.134 C229.730,295.976 304.488,305.272 356.331,264.896 C408.173,224.521 417.469,149.763 377.093,97.920 Z"/>
<path fill-rule="evenodd"  fill="rgb(49, 103, 130)"
 d="M368.772,284.276 C309.282,330.607 227.180,327.919 171.090,282.260 L47.602,378.434 C43.245,381.828 36.962,381.046 33.568,376.689 L2.286,336.524 C-1.107,332.166 -0.326,325.883 4.031,322.489 L127.435,226.381 C96.611,160.734 114.050,80.212 173.677,33.774 C242.851,-20.100 342.601,-7.697 396.475,61.477 C450.349,130.651 437.946,230.402 368.772,284.276 ZM365.093,85.920 C324.717,34.078 249.959,24.782 198.117,65.158 C146.274,105.534 136.978,180.291 177.354,232.134 C217.730,283.977 292.488,293.272 344.330,252.896 C396.173,212.520 405.469,137.763 365.093,85.920 Z"/>
<path fill-rule="evenodd"  fill="rgb(130, 49, 49)"
 d="M367.428,192.486 L353.369,192.486 C352.100,192.486 351.072,191.457 351.072,190.188 L351.072,187.609 C351.072,186.340 352.100,185.311 353.369,185.311 L367.428,185.311 C368.697,185.311 369.726,186.340 369.726,187.609 L369.726,190.188 C369.726,191.457 368.697,192.486 367.428,192.486 ZM345.882,192.486 L331.823,192.486 C330.554,192.486 329.525,191.457 329.525,190.188 L329.525,187.609 C329.525,186.340 330.554,185.311 331.823,185.311 L345.882,185.311 C347.151,185.311 348.179,186.340 348.179,187.609 L348.179,190.188 C348.179,191.457 347.151,192.486 345.882,192.486 ZM344.465,155.636 L342.194,155.636 C340.925,155.636 339.896,154.608 339.896,153.339 L339.896,138.852 C339.896,137.583 340.925,136.555 342.194,136.555 L344.465,136.555 C345.734,136.555 346.763,137.583 346.763,138.852 L346.763,153.339 C346.763,154.608 345.734,155.636 344.465,155.636 ZM341.437,161.245 L332.421,170.015 C331.080,171.319 328.906,171.319 327.566,170.015 C326.225,168.711 326.225,166.597 327.566,165.293 L336.582,156.523 C337.923,155.219 340.097,155.219 341.437,156.523 C342.778,157.827 342.778,159.941 341.437,161.245 ZM296.488,166.630 C283.435,166.630 272.854,156.049 272.854,142.996 C272.854,133.082 278.966,124.607 287.621,121.098 L285.505,118.982 C284.608,118.085 284.608,116.630 285.505,115.733 L287.111,114.127 C288.009,113.230 289.463,113.230 290.360,114.127 L295.639,119.405 C295.842,119.398 296.044,119.385 296.247,119.375 L301.495,114.127 C302.392,113.230 303.847,113.230 304.744,114.127 L306.350,115.733 C307.247,116.630 307.247,118.085 306.350,118.982 L304.534,120.798 C313.619,124.093 320.121,132.774 320.121,142.996 C320.121,156.049 309.540,166.630 296.488,166.630 ZM296.738,132.290 C291.613,132.290 287.457,136.446 287.457,141.571 C287.457,146.697 291.613,150.852 296.738,150.852 C301.864,150.852 306.019,146.697 306.019,141.571 C306.019,136.446 301.864,132.290 296.738,132.290 ZM261.511,169.490 L252.796,160.834 C251.501,159.547 251.501,157.460 252.796,156.173 C254.092,154.886 256.193,154.886 257.489,156.173 L266.204,164.829 C267.499,166.116 267.499,168.203 266.204,169.490 C264.908,170.777 262.807,170.777 261.511,169.490 ZM251.988,155.298 L249.947,155.298 C248.678,155.298 247.649,154.270 247.649,153.001 L247.649,138.762 C247.649,137.494 248.678,136.465 249.947,136.465 L251.988,136.465 C253.257,136.465 254.286,137.494 254.286,138.762 L254.286,153.001 C254.286,154.270 253.257,155.298 251.988,155.298 ZM263.430,187.609 L263.430,190.188 C263.430,191.457 262.402,192.486 261.133,192.486 L247.074,192.486 C245.805,192.486 244.777,191.457 244.777,190.188 L244.777,187.609 C244.777,186.340 245.805,185.311 247.074,185.311 L261.133,185.311 C262.402,185.311 263.430,186.340 263.430,187.609 ZM239.587,192.486 L225.528,192.486 C224.259,192.486 223.230,191.457 223.230,190.188 L223.230,187.609 C223.230,186.340 224.259,185.311 225.528,185.311 L239.587,185.311 C240.855,185.311 241.884,186.340 241.884,187.609 L241.884,190.188 C241.884,191.457 240.855,192.486 239.587,192.486 ZM250.485,219.683 L252.491,219.683 C253.760,219.683 254.788,220.712 254.788,221.981 L254.788,236.243 C254.788,237.512 253.760,238.541 252.491,238.541 L250.485,238.541 C249.217,238.541 248.188,237.512 248.188,236.243 L248.188,221.981 C248.188,220.712 249.217,219.683 250.485,219.683 ZM252.598,218.098 C251.701,217.201 251.701,215.746 252.598,214.849 L262.683,204.764 C263.580,203.867 265.035,203.867 265.932,204.764 L267.350,206.182 C268.248,207.079 268.248,208.534 267.350,209.431 L257.265,219.516 C256.368,220.413 254.913,220.413 254.016,219.516 L252.598,218.098 ZM276.431,158.327 C280.602,165.028 288.013,169.503 296.488,169.503 C304.962,169.503 312.373,165.028 316.545,158.327 C322.744,165.824 326.653,176.738 326.653,188.894 C326.653,211.504 313.147,229.833 296.488,229.833 C279.828,229.833 266.323,211.504 266.323,188.894 C266.323,176.738 270.231,165.824 276.431,158.327 ZM332.499,204.947 L341.466,213.729 C342.800,215.034 342.800,217.151 341.466,218.457 C340.133,219.763 337.971,219.763 336.638,218.457 L327.670,209.675 C326.337,208.370 326.337,206.253 327.670,204.947 C329.003,203.641 331.165,203.641 332.499,204.947 ZM342.231,219.345 L344.465,219.345 C345.734,219.345 346.763,220.373 346.763,221.642 L346.763,236.154 C346.763,237.422 345.734,238.451 344.465,238.451 L342.231,238.451 C340.962,238.451 339.934,237.422 339.934,236.154 L339.934,221.642 C339.934,220.373 340.962,219.345 342.231,219.345 Z"/>
</svg>