<svg 
 xmlns="http://www.w3.org/2000/svg"
 xmlns:xlink="http://www.w3.org/1999/xlink"
 width="615px" height="380px">
<defs>
<linearGradient id="PSgrad_0" x1="0%" x2="100%" y1="0%" y2="0%">
  <stop offset="0%" stop-color="rgb(96,192,241)" stop-opacity="1" />
  <stop offset="100%" stop-color="rgb(49,115,146)" stop-opacity="1" />
</linearGradient>

</defs>
<path fill-rule="evenodd"  fill="url(#PSgrad_0)"
 d="M400.423,132.007 C391.009,132.007 383.259,124.900 382.154,115.733 L327.677,115.733 C327.255,119.698 325.743,123.324 323.466,126.335 L369.697,172.706 C373.598,170.587 378.571,171.179 381.867,174.494 C385.888,178.537 385.888,185.092 381.867,189.135 C377.847,193.178 371.328,193.178 367.307,189.135 C363.865,185.674 363.379,180.377 365.829,176.386 L319.741,130.159 C316.750,132.546 313.115,134.154 309.128,134.641 L309.128,189.471 C318.096,190.717 325.008,198.435 325.008,207.796 C325.008,218.025 316.762,226.317 306.590,226.317 C296.418,226.317 288.172,218.025 288.172,207.796 C288.172,198.524 294.955,190.866 303.798,189.510 L303.798,134.619 C299.836,134.100 296.216,132.495 293.248,130.096 L247.093,176.390 C249.553,180.383 249.070,185.688 245.624,189.152 C241.604,193.195 235.085,193.195 231.064,189.152 C227.044,185.109 227.044,178.554 231.064,174.511 C234.356,171.201 239.321,170.605 243.220,172.716 L289.541,126.254 C287.305,123.257 285.824,119.657 285.407,115.733 L231.027,115.733 C229.922,124.900 222.172,132.007 212.758,132.007 C202.586,132.007 194.340,123.715 194.340,113.486 C194.340,103.258 202.586,94.966 212.758,94.966 C221.877,94.966 229.429,101.638 230.898,110.388 L285.522,110.388 C286.065,106.573 287.620,103.097 289.886,100.213 L243.528,53.714 C239.582,56.044 234.430,55.518 231.044,52.113 C227.023,48.070 227.023,41.515 231.043,37.472 C235.064,33.429 241.583,33.429 245.604,37.472 C248.955,40.843 249.503,45.954 247.267,49.905 L293.682,96.460 C296.566,94.247 300.020,92.748 303.798,92.256 L303.798,37.365 C294.955,36.009 288.172,28.351 288.172,19.079 C288.172,8.850 296.418,0.558 306.590,0.558 C316.762,0.558 325.008,8.850 325.008,19.079 C325.008,28.440 318.096,36.158 309.128,37.404 L309.128,92.234 C312.929,92.702 316.419,94.167 319.325,96.379 L365.653,49.911 C363.427,45.962 363.977,40.859 367.325,37.493 C371.345,33.450 377.864,33.450 381.885,37.493 C385.905,41.536 385.905,48.091 381.885,52.134 C378.495,55.543 373.334,56.066 369.387,53.726 L323.142,100.111 C325.444,103.016 327.013,106.535 327.562,110.388 L382.283,110.388 C383.752,101.638 391.303,94.966 400.423,94.966 C410.595,94.966 418.841,103.258 418.841,113.486 C418.841,123.715 410.595,132.007 400.423,132.007 Z"/>
<text kerning="auto" font-family="Myriad Pro" fill="rgb(0, 0, 0)" font-size="100px" x="0px" y="323px"><tspan font-size="100px" font-family="Arial Black" fill="#ffffff">SAFE&#32;BYTE</tspan></text>
<text kerning="auto" font-family="Myriad Pro" fill="rgb(0, 0, 0)" font-size="29.167px" x="49px" y="373.771px"><tspan font-size="29.167px" font-family="Kohinoor Bangla" fill="#ffffff">Partner&#32;pro&#32;bezpe&#269;nost&#32;v&#32;kyberprostoru</tspan></text>
</svg>