<svg 
 xmlns="http://www.w3.org/2000/svg"
 xmlns:xlink="http://www.w3.org/1999/xlink"
 width="460px" height="283px">
<defs>
<filter id="Filter_0">
    <feFlood flood-color="rgb(255, 255, 255)" flood-opacity="1" result="floodOut" />
    <feComposite operator="atop" in="floodOut" in2="SourceGraphic" result="compOut" />
    <feBlend mode="normal" in="compOut" in2="SourceGraphic" />
</filter>
<linearGradient id="PSgrad_0" x1="0%" x2="100%" y1="0%" y2="0%">
  <stop offset="0%" stop-color="rgb(96,192,241)" stop-opacity="1" />
  <stop offset="100%" stop-color="rgb(49,115,146)" stop-opacity="1" />
</linearGradient>
<filter id="Filter_1">
    <feFlood flood-color="rgb(39, 39, 39)" flood-opacity="1" result="floodOut" />
    <feComposite operator="atop" in="floodOut" in2="SourceGraphic" result="compOut" />
    <feBlend mode="normal" in="compOut" in2="SourceGraphic" />
</filter>
<filter id="Filter_2">
    <feFlood flood-color="rgb(255, 255, 255)" flood-opacity="1" result="floodOut" />
    <feComposite operator="atop" in="floodOut" in2="SourceGraphic" result="compOut" />
    <feBlend mode="normal" in="compOut" in2="SourceGraphic" />
</filter>

</defs>
<g filter="url(#Filter_0)">
<path fill-rule="evenodd"  fill="url(#PSgrad_0)"
 d="M299.334,98.347 C292.297,98.347 286.503,93.031 285.677,86.175 L244.956,86.175 C244.641,89.140 243.510,91.853 241.808,94.105 L276.390,128.812 C279.305,127.235 283.003,127.649 285.463,130.125 C288.468,133.149 288.468,138.052 285.463,141.075 C282.458,144.099 277.585,144.099 274.579,141.075 C272.008,138.488 271.655,134.533 273.483,131.549 L239.024,96.965 C236.788,98.750 234.071,99.953 231.091,100.317 L231.091,141.327 C237.794,142.259 242.961,148.031 242.961,155.033 C242.961,162.684 236.797,168.886 229.194,168.886 C221.590,168.886 215.426,162.684 215.426,155.033 C215.426,148.098 220.496,142.370 227.107,141.356 L227.107,100.300 C224.145,99.912 221.439,98.712 219.220,96.917 L184.712,131.551 C186.548,134.537 186.196,138.498 183.622,141.088 C180.616,144.112 175.744,144.112 172.738,141.088 C169.733,138.065 169.733,133.162 172.738,130.138 C175.195,127.666 178.887,127.250 181.799,128.820 L216.449,94.044 C214.778,91.803 213.671,89.110 213.359,86.175 L172.710,86.175 C171.884,93.031 166.091,98.347 159.054,98.347 C151.451,98.347 145.287,92.145 145.287,84.494 C145.287,76.844 151.451,70.642 159.054,70.642 C165.871,70.642 171.516,75.632 172.614,82.177 L213.445,82.177 C213.851,79.324 215.013,76.724 216.707,74.567 L182.040,39.774 C179.092,41.511 175.252,41.136 172.723,38.591 C169.717,35.567 169.717,30.664 172.723,27.640 C175.728,24.616 180.601,24.616 183.606,27.640 C186.109,30.158 186.496,33.967 184.831,36.921 L219.544,71.760 C221.700,70.105 224.283,68.983 227.107,68.616 L227.107,27.560 C220.496,26.546 215.426,20.818 215.426,13.883 C215.426,6.233 221.590,0.030 229.194,0.030 C236.797,0.030 242.961,6.233 242.961,13.883 C242.961,20.885 237.794,26.657 231.091,27.589 L231.091,68.599 C233.932,68.949 236.541,70.045 238.713,71.699 L273.362,36.925 C271.704,33.972 272.093,30.171 274.592,27.656 C277.598,24.632 282.471,24.632 285.476,27.656 C288.481,30.680 288.481,35.583 285.476,38.606 C282.944,41.154 279.097,41.528 276.148,39.783 L241.566,74.491 C243.287,76.663 244.460,79.296 244.870,82.177 L285.774,82.177 C286.872,75.632 292.517,70.642 299.334,70.642 C306.937,70.642 313.101,76.844 313.101,84.494 C313.101,92.145 306.937,98.347 299.334,98.347 Z"/>
</g>
<g filter="url(#Filter_1)">
<text kerning="auto" font-family="Myriad Pro" fill="rgb(0, 0, 0)" transform="matrix( 0.74749755878789, 0, 0, 0.74794407022529,0.49993576192855, 240.92598652811)" font-size="100px"><tspan font-size="100px" font-family="Arial Black" fill="#343434">SAFE&#32;BYTE</tspan></text>
</g>
<g filter="url(#Filter_2)">
<text kerning="auto" font-family="Myriad Pro" fill="rgb(0, 0, 0)" transform="matrix( 0.74749755878789, 0, 0, 0.74794407022529,37.3973144949156, 277.781982245822)" font-size="29.167px"><tspan font-size="29.167px" font-family="Kohinoor Bangla" fill="#327595">Partner&#32;pro&#32;bezpe&#269;nost&#32;v&#32;kyberprostoru</tspan></text>
</g>
</svg>
