<svg 
 xmlns="http://www.w3.org/2000/svg"
 xmlns:xlink="http://www.w3.org/1999/xlink"
 width="487px" height="84px">
<defs>
<linearGradient id="PSgrad_0" x1="0%" x2="100%" y1="0%" y2="0%">
  <stop offset="0%" stop-color="rgb(96,192,241)" stop-opacity="1" />
  <stop offset="100%" stop-color="rgb(32,76,96)" stop-opacity="1" />
</linearGradient>

</defs>
<path fill-rule="evenodd"  fill="url(#PSgrad_0)"
 d="M76.165,48.609 C72.730,48.609 69.929,46.000 69.522,42.644 L49.602,42.644 C49.448,44.099 48.885,45.417 48.051,46.517 L64.958,63.539 C66.381,62.766 68.188,62.969 69.389,64.182 C70.858,65.664 70.858,68.066 69.390,69.548 C67.921,71.030 65.541,71.030 64.073,69.548 C62.817,68.280 62.644,66.342 63.538,64.880 L46.685,47.911 C45.594,48.777 44.279,49.370 42.829,49.549 L42.829,69.694 C46.101,70.153 48.628,72.959 48.628,76.388 C48.628,80.137 45.617,83.176 41.903,83.176 C38.188,83.176 35.177,80.137 35.177,76.388 C35.177,72.991 37.657,70.202 40.883,69.703 L40.883,49.549 C39.443,49.354 38.127,48.771 37.045,47.894 L20.174,64.881 C21.071,66.344 20.899,68.285 19.641,69.554 C18.173,71.036 15.793,71.036 14.325,69.554 C12.857,68.073 12.857,65.670 14.325,64.188 C15.525,62.977 17.328,62.773 18.751,63.542 L35.681,46.497 C34.864,45.399 34.320,44.082 34.168,42.644 L14.283,42.644 C13.876,46.000 11.075,48.609 7.640,48.609 C3.926,48.609 0.915,45.570 0.915,41.821 C0.915,38.072 3.926,35.033 7.640,35.033 C10.969,35.033 13.714,37.480 14.252,40.685 L34.210,40.685 C34.408,39.286 34.986,38.022 35.816,36.968 L18.869,19.906 C17.428,20.757 15.553,20.573 14.317,19.326 C12.849,17.844 12.849,15.441 14.317,13.960 C15.785,12.478 18.166,12.478 19.634,13.960 C20.856,15.194 21.046,17.060 20.232,18.508 L37.205,35.596 C38.256,34.792 39.508,34.240 40.883,34.060 L40.883,13.903 C37.657,13.404 35.177,10.615 35.177,7.218 C35.177,3.469 38.188,0.430 41.903,0.430 C45.617,0.430 48.628,3.469 48.628,7.218 C48.628,10.647 46.101,13.453 42.829,13.912 L42.829,34.048 C44.210,34.225 45.476,34.760 46.535,35.568 L63.478,18.510 C62.668,17.063 62.858,15.200 64.079,13.967 C65.547,12.485 67.928,12.485 69.396,13.967 C70.864,15.449 70.864,17.852 69.396,19.334 C68.159,20.582 66.280,20.765 64.839,19.910 L47.945,36.920 C48.786,37.984 49.360,39.273 49.560,40.685 L69.553,40.685 C70.091,37.480 72.836,35.033 76.165,35.033 C79.879,35.033 82.890,38.072 82.890,41.821 C82.890,45.570 79.879,48.609 76.165,48.609 Z"/>
<text kerning="auto" font-family="Myriad Pro" fill="rgb(0, 0, 0)" transform="matrix( 0.62115930323834, 0, 0, 0.62115930323834,105.788875502901, 64.3617349165802)" font-size="100px"><tspan font-size="100px" font-family="Arial Black" fill="#FFFFFF">SAFE&#32;BYTE</tspan></text>
</svg>