<svg 
 xmlns="http://www.w3.org/2000/svg"
 xmlns:xlink="http://www.w3.org/1999/xlink"
 width="774px" height="393px">
<path fill-rule="evenodd"  fill="rgb(49, 103, 130)"
 d="M290.000,-0.000 C298.333,1.333 306.668,2.667 315.000,4.000 C315.000,4.333 315.000,4.667 315.000,5.000 C314.333,7.666 313.667,10.334 313.000,13.000 C313.333,13.000 313.667,13.000 314.000,13.000 C320.268,10.285 328.563,8.596 336.000,10.000 C336.000,10.333 336.000,10.667 336.000,11.000 C322.060,13.381 318.025,17.905 315.000,29.000 C320.297,29.161 317.924,27.620 321.000,31.000 C318.667,31.667 316.333,32.333 314.000,33.000 C314.000,33.333 314.000,33.667 314.000,34.000 C316.000,35.000 318.000,36.000 320.000,37.000 C316.347,46.827 315.017,49.406 314.000,59.000 C313.667,58.333 313.333,57.667 313.000,57.000 C311.333,55.667 309.667,54.333 308.000,53.000 C307.667,53.000 307.333,53.000 307.000,53.000 C307.000,54.333 307.000,55.667 307.000,57.000 C308.666,58.000 310.334,59.000 312.000,60.000 C311.333,60.000 310.667,60.000 310.000,60.000 C305.160,64.451 297.797,62.724 293.000,65.000 C279.037,71.624 275.324,80.280 268.000,93.000 C258.769,87.906 243.272,75.112 250.000,67.000 C251.333,64.334 252.667,61.666 254.000,59.000 C250.395,57.000 253.128,59.121 253.000,55.000 C247.804,53.547 248.406,52.755 243.000,53.000 C243.359,42.789 240.189,43.540 237.000,36.000 C229.001,35.333 220.999,34.667 213.000,34.000 C211.132,28.060 211.038,29.361 206.000,25.000 C212.919,24.643 221.068,22.892 223.000,17.000 C218.990,16.421 220.009,17.046 218.000,15.000 C238.509,11.737 245.557,5.518 263.000,9.000 C267.386,9.876 265.300,10.107 267.000,7.000 C265.000,6.667 263.000,6.333 261.000,6.000 C261.333,5.333 261.667,4.667 262.000,4.000 C271.332,2.667 280.668,1.333 290.000,-0.000 ZM197.000,3.000 C207.999,4.000 219.001,5.000 230.000,6.000 C229.333,6.333 228.667,6.667 228.000,7.000 C217.687,13.075 197.730,26.932 191.000,29.000 C191.141,32.998 193.224,30.429 191.000,33.000 C186.303,34.520 174.110,34.618 169.000,32.000 C170.666,31.667 172.334,31.333 174.000,31.000 C173.667,30.000 173.333,29.000 173.000,28.000 C175.666,28.667 178.334,29.333 181.000,30.000 C179.667,28.334 178.333,26.667 177.000,25.000 C172.289,25.552 164.117,26.106 160.000,22.000 C161.333,21.667 162.667,21.333 164.000,21.000 C160.741,19.418 158.536,20.638 157.000,19.000 C156.333,18.667 155.667,18.333 155.000,18.000 C155.667,16.333 156.333,14.666 157.000,13.000 C158.000,12.667 159.000,12.333 160.000,12.000 C167.806,14.561 179.103,23.832 184.000,14.000 C176.419,15.106 170.801,14.976 167.000,9.000 C176.999,7.000 187.001,5.000 197.000,3.000 ZM309.000,6.000 C307.586,9.091 308.285,6.018 308.000,10.000 C309.000,10.000 310.000,10.000 311.000,10.000 C311.000,9.333 311.000,8.667 311.000,8.000 C311.667,8.000 312.333,8.000 313.000,8.000 C313.000,7.667 313.000,7.333 313.000,7.000 C313.000,6.667 313.000,6.333 313.000,6.000 C311.667,6.000 310.333,6.000 309.000,6.000 ZM305.000,9.000 C304.333,9.333 303.667,9.667 303.000,10.000 C303.333,10.667 303.667,11.333 304.000,12.000 C305.371,9.855 305.822,11.461 305.000,9.000 ZM487.000,11.000 C487.333,12.666 487.667,14.333 488.000,16.000 C487.667,16.000 487.333,16.000 487.000,16.000 C486.000,14.667 485.000,13.333 484.000,12.000 C485.000,11.667 486.000,11.333 487.000,11.000 ZM191.000,12.000 C190.000,13.000 189.000,14.000 188.000,15.000 C188.000,15.333 188.000,15.667 188.000,16.000 C189.667,15.667 191.333,15.333 193.000,15.000 C193.000,14.000 193.000,13.000 193.000,12.000 C192.333,12.000 191.667,12.000 191.000,12.000 ZM503.000,12.000 C503.667,12.000 504.333,12.000 505.000,12.000 C504.333,12.000 503.667,12.000 503.000,12.000 ZM569.000,12.000 C576.667,13.809 570.953,18.401 579.000,18.000 C579.000,19.667 579.000,21.334 579.000,23.000 C578.000,23.000 577.000,23.000 576.000,23.000 C573.334,22.333 570.666,21.667 568.000,21.000 C567.000,18.334 566.000,15.666 565.000,13.000 C566.333,12.667 567.667,12.333 569.000,12.000 ZM495.000,13.000 C495.667,13.667 496.333,14.333 497.000,15.000 C495.334,15.000 493.666,15.000 492.000,15.000 C493.000,14.333 494.000,13.667 495.000,13.000 ZM500.000,13.000 C501.000,13.000 502.000,13.000 503.000,13.000 C502.000,13.000 501.000,13.000 500.000,13.000 ZM406.000,16.000 C411.333,16.667 416.667,17.333 422.000,18.000 C421.333,18.000 420.667,18.000 420.000,18.000 C418.667,19.000 417.333,20.000 416.000,21.000 C408.839,20.357 405.450,19.343 406.000,16.000 ZM146.000,17.000 C146.667,17.000 147.333,17.000 148.000,17.000 C147.333,17.000 146.667,17.000 146.000,17.000 ZM398.000,18.000 C401.000,20.000 404.000,22.000 407.000,24.000 C402.423,25.867 401.847,28.677 399.000,32.000 C395.720,30.200 395.608,30.769 394.000,27.000 C397.027,25.068 395.619,26.796 397.000,23.000 C396.000,23.000 395.000,23.000 394.000,23.000 C390.115,26.578 389.539,24.187 387.000,21.000 C387.000,20.667 387.000,20.333 387.000,20.000 C387.333,19.667 387.667,19.333 388.000,19.000 C391.666,19.667 395.334,20.333 399.000,21.000 C398.667,20.000 398.333,19.000 398.000,18.000 ZM135.000,21.000 C141.627,21.723 144.411,22.594 148.000,27.000 C142.462,25.951 138.459,24.025 135.000,21.000 ZM583.000,21.000 C585.666,21.667 588.334,22.333 591.000,23.000 C591.000,23.667 591.000,24.333 591.000,25.000 C587.667,25.000 584.333,25.000 581.000,25.000 C581.667,23.667 582.333,22.333 583.000,21.000 ZM122.000,24.000 C123.000,24.000 124.000,24.000 125.000,24.000 C124.667,25.666 124.333,27.333 124.000,29.000 C122.000,29.000 120.000,29.000 118.000,29.000 C118.000,28.667 118.000,28.333 118.000,28.000 C118.667,27.667 119.333,27.333 120.000,27.000 C120.667,26.000 121.333,25.000 122.000,24.000 ZM151.000,24.000 C154.000,25.333 157.000,26.667 160.000,28.000 C160.000,28.333 160.000,28.667 160.000,29.000 C158.334,29.000 156.666,29.000 155.000,29.000 C153.667,27.333 152.333,25.666 151.000,24.000 ZM410.000,25.000 C411.666,26.333 413.334,27.667 415.000,29.000 C414.000,28.667 413.000,28.333 412.000,28.000 C409.532,26.871 410.873,28.498 410.000,25.000 ZM110.000,29.000 C110.538,32.647 110.897,31.506 108.000,34.000 C104.246,32.083 103.213,36.905 97.000,34.000 C101.333,32.334 105.667,30.667 110.000,29.000 ZM586.000,29.000 C586.313,29.014 605.345,33.599 607.000,35.000 C609.066,36.963 608.035,35.375 609.000,39.000 C604.000,41.666 599.000,44.334 594.000,47.000 C607.663,45.911 629.970,44.449 642.000,47.000 C643.100,52.350 644.070,53.895 647.000,57.000 C661.205,47.106 692.316,51.348 710.000,57.000 C710.491,60.115 708.876,57.657 711.000,60.000 C718.999,61.000 727.001,62.000 735.000,63.000 C735.000,61.667 735.000,60.333 735.000,59.000 C751.748,63.664 765.321,66.002 774.000,73.000 C774.000,73.333 774.000,73.667 774.000,74.000 C769.028,75.733 770.214,77.503 763.000,77.000 C761.051,73.951 757.825,73.041 754.000,72.000 C752.956,77.574 753.120,76.740 747.000,77.000 C748.666,79.666 750.334,82.334 752.000,85.000 C739.370,84.634 730.100,91.582 717.000,93.000 C715.333,99.901 714.387,98.524 717.000,105.000 C710.869,108.315 708.447,115.895 703.000,120.000 C702.333,115.334 701.667,110.666 701.000,106.000 C707.115,99.654 717.914,93.903 720.000,84.000 C719.667,84.000 719.333,84.000 719.000,84.000 C716.667,86.000 714.333,88.000 712.000,90.000 C709.442,87.458 708.437,86.149 704.000,88.000 C701.334,90.666 698.666,93.334 696.000,96.000 C688.852,94.485 682.007,94.854 672.000,95.000 C666.667,99.999 661.333,105.000 656.000,110.000 C657.000,110.000 658.000,110.000 659.000,110.000 C662.685,115.474 670.451,114.196 674.000,115.000 C673.609,118.881 675.498,122.421 673.000,126.000 C673.000,126.667 673.000,127.333 673.000,128.000 C672.667,128.000 672.333,128.000 672.000,128.000 C672.141,123.081 671.942,120.432 670.000,118.000 C667.334,123.999 664.666,130.001 662.000,136.000 C658.324,141.123 644.955,148.564 639.000,153.000 C643.326,159.177 645.719,162.447 638.000,166.000 C638.421,159.602 639.975,159.403 635.000,157.000 C634.484,152.346 635.494,151.548 627.000,153.000 C627.529,148.940 629.112,150.757 625.000,149.000 C622.667,151.666 620.333,154.334 618.000,157.000 C621.263,158.379 619.943,158.009 622.000,160.000 C625.593,158.499 624.472,158.070 628.000,160.000 C625.667,161.667 623.333,163.334 621.000,165.000 C624.632,169.860 625.728,173.678 627.000,179.000 C620.053,193.742 612.812,196.825 594.000,200.000 C593.333,201.666 592.667,203.333 592.000,205.000 C596.706,217.219 604.233,220.142 591.000,230.000 C589.448,223.691 585.518,222.136 582.000,218.000 C581.333,218.333 580.667,218.667 580.000,219.000 C579.667,220.667 579.333,222.334 579.000,224.000 C577.334,219.334 575.666,214.666 574.000,210.000 C572.334,210.667 570.666,211.333 569.000,212.000 C568.409,204.884 564.986,199.767 561.000,196.000 C557.667,197.333 554.333,198.667 551.000,200.000 C547.892,205.886 539.857,208.018 537.000,213.000 C532.404,221.015 537.277,225.474 531.000,231.000 C530.667,231.000 530.333,231.000 530.000,231.000 C528.576,224.503 522.644,200.168 519.000,198.000 C515.828,201.563 518.279,200.316 514.000,199.000 C513.808,194.452 509.383,189.360 504.000,190.000 C483.862,187.339 483.532,182.932 469.000,177.000 C468.333,177.333 467.667,177.667 467.000,178.000 C467.000,179.000 467.000,180.000 467.000,181.000 C470.000,185.333 473.000,189.667 476.000,194.000 C480.339,192.451 481.923,191.280 485.000,189.000 C486.688,194.125 488.832,193.809 492.000,197.000 C487.386,208.833 472.009,217.830 458.000,220.000 C455.041,205.222 447.406,194.049 439.000,182.000 C438.667,182.000 438.333,182.000 438.000,182.000 C437.333,182.333 436.667,182.667 436.000,183.000 C437.523,198.482 451.437,220.554 460.000,227.000 C464.666,225.667 469.334,224.333 474.000,223.000 C470.479,242.641 453.531,245.766 448.000,261.000 C444.695,270.102 455.313,280.189 449.000,289.000 C445.334,292.000 441.666,295.000 438.000,298.000 C441.817,319.873 425.562,330.012 406.000,336.000 C405.333,335.000 404.667,334.000 404.000,333.000 C398.891,321.655 392.356,306.047 389.000,295.000 C386.766,287.648 393.409,283.136 394.000,279.000 C394.022,278.846 383.000,241.000 383.000,241.000 C368.468,233.681 357.270,240.558 343.000,239.000 C317.234,207.036 328.772,191.747 351.000,164.000 C360.873,166.888 372.007,158.464 381.000,161.000 C385.680,161.064 383.866,160.422 387.000,164.000 C386.049,167.116 383.838,167.005 387.000,169.000 C392.999,172.000 399.001,175.000 405.000,178.000 C406.666,175.667 408.334,173.333 410.000,171.000 C418.022,174.597 447.021,182.170 441.000,164.000 C441.333,162.667 441.667,161.333 442.000,160.000 C435.092,160.782 429.218,162.415 426.000,160.000 C419.785,157.210 420.311,154.852 421.000,149.000 C418.000,149.667 415.000,150.333 412.000,151.000 C413.065,155.557 414.428,155.161 413.000,157.000 C410.967,159.978 412.286,158.201 410.000,159.000 C407.266,148.091 400.631,138.823 390.000,136.000 C389.667,136.667 389.333,137.333 389.000,138.000 C392.422,146.154 398.272,146.898 400.000,155.000 C399.333,153.667 398.667,152.333 398.000,151.000 C391.992,148.687 387.942,145.499 385.000,140.000 C378.121,140.300 369.506,141.474 370.000,147.000 C362.266,149.555 362.610,154.531 359.000,160.000 C356.000,160.667 353.000,161.333 350.000,162.000 C348.334,160.000 346.666,158.000 345.000,156.000 C343.967,151.906 344.635,144.249 346.000,142.000 C350.054,143.365 357.242,143.854 360.000,141.000 C360.333,139.000 360.667,137.000 361.000,135.000 C358.667,132.667 356.333,130.333 354.000,128.000 C367.678,127.146 372.932,116.089 383.000,113.000 C382.341,107.158 380.749,105.490 385.000,103.000 C384.025,109.791 384.101,112.609 391.000,111.000 C395.749,112.821 405.452,110.388 410.000,110.000 C410.000,107.334 410.000,104.666 410.000,102.000 C414.910,101.138 414.936,104.796 417.000,98.000 C416.333,97.667 415.667,97.333 415.000,97.000 C415.333,96.333 415.667,95.667 416.000,95.000 C419.000,95.333 422.000,95.667 425.000,96.000 C425.333,94.333 425.667,92.666 426.000,91.000 C419.235,91.571 415.868,93.676 412.000,91.000 C411.333,91.000 410.667,91.000 410.000,91.000 C410.000,88.334 410.000,85.666 410.000,83.000 C413.000,81.333 416.000,79.666 419.000,78.000 C417.679,74.173 419.002,75.920 416.000,74.000 C412.067,71.903 402.837,82.468 401.000,86.000 C399.909,93.455 403.863,90.900 401.000,97.000 C399.146,98.851 398.846,102.131 398.000,105.000 C396.333,105.667 394.667,106.333 393.000,107.000 C390.667,103.000 388.333,99.000 386.000,95.000 C381.625,97.467 381.429,98.522 376.000,98.000 C375.667,95.667 375.333,93.333 375.000,91.000 C378.657,82.922 386.458,82.463 391.000,76.000 C407.159,53.010 427.131,53.447 452.000,68.000 C452.000,69.000 452.000,70.000 452.000,71.000 C451.333,71.333 450.667,71.667 450.000,72.000 C443.960,72.417 437.756,69.155 435.000,73.000 C438.561,74.955 437.762,76.822 441.000,79.000 C441.667,79.667 442.333,80.333 443.000,81.000 C448.218,79.412 443.919,78.070 451.000,79.000 C451.267,71.238 461.966,73.970 459.000,68.000 C459.333,67.000 459.667,66.000 460.000,65.000 C461.333,65.667 462.667,66.333 464.000,67.000 C463.000,67.333 462.000,67.667 461.000,68.000 C461.333,69.000 461.667,70.000 462.000,71.000 C468.401,69.968 474.641,65.944 480.000,63.000 C480.817,66.512 478.740,64.461 482.000,66.000 C486.666,65.000 491.334,64.000 496.000,63.000 C495.667,62.000 495.333,61.000 495.000,60.000 C500.999,62.000 507.001,64.000 513.000,66.000 C511.534,60.264 509.814,60.802 509.000,54.000 C512.663,52.094 515.052,48.670 515.000,46.000 C517.000,47.333 519.000,48.667 521.000,50.000 C519.401,54.284 519.206,59.670 522.000,65.000 C520.334,67.666 518.666,70.334 517.000,73.000 C518.333,72.333 519.667,71.667 521.000,71.000 C525.809,68.528 525.286,65.762 528.000,63.000 C528.333,63.000 528.667,63.000 529.000,63.000 C529.667,64.333 530.333,65.667 531.000,67.000 C531.667,66.333 532.333,65.667 533.000,65.000 C529.807,61.331 529.471,61.520 524.000,62.000 C524.193,55.905 524.448,57.136 522.000,53.000 C523.333,52.667 524.667,52.333 526.000,52.000 C526.995,53.052 535.334,52.291 543.000,53.000 C543.000,52.667 543.000,52.333 543.000,52.000 C541.334,50.000 539.666,48.000 538.000,46.000 C543.781,46.123 549.850,45.549 553.000,43.000 C551.658,40.237 552.367,42.706 552.000,40.000 C563.700,37.004 578.910,36.605 586.000,29.000 ZM155.000,31.000 C156.666,31.667 158.334,32.333 160.000,33.000 C160.000,33.333 160.000,33.667 160.000,34.000 C156.650,33.380 153.587,33.843 155.000,31.000 ZM126.000,32.000 C127.000,33.666 128.000,35.333 129.000,37.000 C130.667,37.000 132.333,37.000 134.000,37.000 C133.000,38.000 132.000,39.000 131.000,40.000 C121.673,38.107 119.378,40.497 110.000,38.000 C110.333,37.000 110.667,36.000 111.000,35.000 C112.000,34.667 113.000,34.333 114.000,34.000 C121.093,37.491 125.082,40.098 126.000,32.000 ZM167.000,32.000 C167.667,34.000 168.333,36.000 169.000,38.000 C176.971,37.724 185.001,34.944 190.000,39.000 C190.000,39.333 190.000,39.667 190.000,40.000 C189.333,40.000 188.667,40.000 188.000,40.000 C180.001,40.000 171.999,40.000 164.000,40.000 C163.000,37.667 162.000,35.333 161.000,33.000 C163.000,32.667 165.000,32.333 167.000,32.000 ZM507.000,32.000 C508.666,32.000 510.334,32.000 512.000,32.000 C511.667,32.667 511.333,33.333 511.000,34.000 C498.676,36.431 489.215,40.509 483.000,49.000 C483.667,53.571 484.065,53.376 486.000,56.000 C484.667,56.000 483.333,56.000 482.000,56.000 C480.000,54.667 478.000,53.333 476.000,52.000 C480.333,47.001 484.667,42.000 489.000,37.000 C494.499,33.804 502.912,36.412 507.000,32.000 ZM144.000,33.000 C146.333,33.333 148.667,33.667 151.000,34.000 C150.667,35.666 150.333,37.334 150.000,39.000 C145.904,38.400 142.489,37.187 140.000,35.000 C141.333,34.333 142.667,33.667 144.000,33.000 ZM663.000,35.000 C667.666,35.667 672.334,36.333 677.000,37.000 C677.000,37.667 677.000,38.333 677.000,39.000 C675.667,39.333 674.333,39.667 673.000,40.000 C669.315,39.388 664.302,40.488 661.000,38.000 C661.667,37.000 662.333,36.000 663.000,35.000 ZM105.000,36.000 C105.667,36.000 106.333,36.000 107.000,36.000 C106.333,36.000 105.667,36.000 105.000,36.000 ZM155.000,38.000 C158.635,38.644 158.027,38.403 160.000,40.000 C160.000,40.333 160.000,40.667 160.000,41.000 C159.667,41.000 159.333,41.000 159.000,41.000 C156.770,39.804 156.514,39.906 155.000,38.000 ZM683.000,38.000 C685.333,38.667 687.667,39.333 690.000,40.000 C685.594,39.888 685.065,40.091 683.000,38.000 ZM94.000,42.000 C109.896,42.195 119.514,47.953 130.000,53.000 C129.704,48.032 127.741,49.145 132.000,47.000 C133.963,44.934 132.375,45.965 136.000,45.000 C134.047,51.231 134.595,55.398 142.000,58.000 C140.728,61.280 141.083,59.198 141.000,63.000 C129.425,62.208 118.513,65.741 109.000,59.000 C113.872,58.901 117.567,59.246 120.000,57.000 C115.667,56.667 111.333,56.333 107.000,56.000 C107.157,53.177 107.144,51.159 106.000,48.000 C101.382,51.760 98.396,56.091 94.000,52.000 C93.000,51.667 92.000,51.333 91.000,51.000 C93.282,47.090 94.303,46.453 94.000,42.000 ZM606.000,42.000 C606.667,42.000 607.333,42.000 608.000,42.000 C607.333,42.000 606.667,42.000 606.000,42.000 ZM149.000,44.000 C150.333,45.333 151.667,46.667 153.000,48.000 C151.693,52.472 153.662,50.009 150.000,52.000 C150.000,52.667 150.000,53.333 150.000,54.000 C147.000,52.000 144.000,50.000 141.000,48.000 C142.666,48.333 144.334,48.667 146.000,49.000 C146.721,43.529 144.977,47.039 149.000,44.000 ZM184.000,109.000 C184.312,113.238 183.938,112.964 186.000,115.000 C186.667,117.000 187.333,119.000 188.000,121.000 C189.667,120.667 191.333,120.333 193.000,120.000 C192.667,116.334 192.333,112.666 192.000,109.000 C194.000,107.667 196.000,106.333 198.000,105.000 C196.284,97.130 196.399,94.217 194.000,86.000 C199.841,85.798 202.860,85.567 205.000,88.000 C211.876,90.640 211.222,93.869 215.000,99.000 C220.468,97.975 220.222,97.309 223.000,94.000 C223.333,94.667 223.667,95.333 224.000,96.000 C229.936,101.290 239.465,112.563 242.000,118.000 C241.667,118.333 241.333,118.667 241.000,119.000 C231.663,120.172 218.703,121.648 213.000,128.000 C213.000,128.333 213.000,128.667 213.000,129.000 C213.333,129.000 213.667,129.000 214.000,129.000 C217.699,127.331 220.455,125.577 223.000,128.000 C221.023,132.875 224.333,135.895 229.000,136.000 C226.334,137.667 223.666,139.334 221.000,141.000 C221.333,139.334 221.667,137.667 222.000,136.000 C203.971,142.705 201.424,160.832 186.000,174.000 C187.000,179.333 188.000,184.667 189.000,190.000 C188.000,189.333 187.000,188.667 186.000,188.000 C184.667,184.667 183.333,181.333 182.000,178.000 C174.150,176.661 149.425,176.617 152.000,187.000 C149.338,194.998 151.363,203.958 157.000,207.000 C165.566,209.444 165.788,201.726 174.000,200.000 C174.000,200.333 174.000,200.667 174.000,201.000 C172.667,205.333 171.333,209.667 170.000,214.000 C174.000,214.333 178.000,214.667 182.000,215.000 C181.446,222.746 181.359,224.761 184.000,230.000 C177.275,226.881 179.830,222.342 174.000,219.000 C165.264,213.992 160.000,215.809 151.000,213.000 C137.143,208.674 123.004,187.025 118.000,174.000 C116.667,174.000 115.333,174.000 114.000,174.000 C116.000,178.333 118.000,182.667 120.000,187.000 C119.667,187.000 119.333,187.000 119.000,187.000 C118.000,186.667 117.000,186.333 116.000,186.000 C112.860,173.017 101.017,166.729 95.000,155.000 C94.333,145.334 93.667,135.666 93.000,126.000 C86.107,116.353 70.893,98.519 61.000,93.000 C56.277,90.365 50.552,92.698 45.000,89.000 C41.667,91.000 38.333,93.000 35.000,95.000 C35.000,93.667 35.000,92.333 35.000,91.000 C27.783,93.587 27.495,100.075 20.000,103.000 C20.000,102.667 20.000,102.333 20.000,102.000 C22.078,99.976 21.365,101.000 22.000,97.000 C13.971,96.850 5.711,94.153 4.000,86.000 C4.667,86.000 5.333,86.000 6.000,86.000 C9.000,84.334 12.000,82.667 15.000,81.000 C14.667,79.667 14.333,78.333 14.000,77.000 C7.216,78.072 4.678,77.425 -0.000,75.000 C-0.000,74.667 -0.000,74.333 -0.000,74.000 C5.065,73.280 9.577,74.321 13.000,72.000 C12.333,71.000 11.667,70.000 11.000,69.000 C8.334,67.334 5.666,65.667 3.000,64.000 C9.333,61.000 15.667,58.000 22.000,55.000 C33.996,52.710 54.685,62.450 66.000,64.000 C70.333,62.333 74.667,60.667 79.000,59.000 C90.999,60.667 103.001,62.333 115.000,64.000 C113.700,66.854 113.492,64.603 114.000,68.000 C121.487,67.853 123.931,67.698 129.000,69.000 C129.785,63.994 129.575,65.607 132.000,63.000 C137.929,66.733 142.329,67.436 150.000,68.000 C150.210,64.059 151.658,65.513 149.000,63.000 C149.667,62.000 150.333,61.000 151.000,60.000 C155.162,63.310 153.108,63.407 155.000,68.000 C155.667,67.333 156.333,66.667 157.000,66.000 C158.333,65.667 159.667,65.333 161.000,65.000 C158.306,60.468 155.824,59.697 154.000,54.000 C158.196,51.987 154.824,49.651 157.000,44.000 C160.000,44.000 163.000,44.000 166.000,44.000 C163.165,47.988 160.158,48.119 158.000,53.000 C162.609,55.701 164.791,60.849 167.000,66.000 C169.277,64.389 168.768,64.190 172.000,63.000 C172.000,65.000 172.000,67.000 172.000,69.000 C173.333,69.000 174.667,69.000 176.000,69.000 C177.825,64.122 178.512,63.923 178.000,58.000 C172.673,57.438 171.530,57.877 170.000,53.000 C169.333,53.000 168.667,53.000 168.000,53.000 C169.667,50.334 171.333,47.666 173.000,45.000 C174.333,45.000 175.667,45.000 177.000,45.000 C175.212,48.588 174.484,49.612 177.000,53.000 C177.333,53.000 177.667,53.000 178.000,53.000 C178.637,46.422 180.105,46.007 186.000,45.000 C188.303,49.378 187.407,50.317 194.000,51.000 C194.000,50.000 194.000,49.000 194.000,48.000 C189.581,47.226 190.286,47.396 188.000,45.000 C198.856,47.405 205.851,54.604 216.000,59.000 C215.333,61.000 214.667,63.000 214.000,65.000 C218.999,67.000 224.001,69.000 229.000,71.000 C228.333,71.333 227.667,71.667 227.000,72.000 C226.333,73.333 225.667,74.667 225.000,76.000 C221.688,73.617 220.952,72.213 216.000,71.000 C216.000,72.000 216.000,73.000 216.000,74.000 C218.333,76.333 220.667,78.667 223.000,81.000 C222.667,81.667 222.333,82.333 222.000,83.000 C221.667,83.000 221.333,83.000 221.000,83.000 C219.000,82.333 217.000,81.667 215.000,81.000 C215.000,81.333 215.000,81.667 215.000,82.000 C216.333,83.333 217.667,84.667 219.000,86.000 C209.090,84.514 203.950,80.006 194.000,78.000 C194.000,77.667 194.000,77.333 194.000,77.000 C194.333,76.667 194.667,76.333 195.000,76.000 C198.000,76.000 201.000,76.000 204.000,76.000 C204.308,71.439 204.613,72.197 207.000,68.000 C203.000,64.667 199.000,61.333 195.000,58.000 C189.361,58.848 186.198,58.633 181.000,59.000 C181.333,59.667 181.667,60.333 182.000,61.000 C183.333,61.667 184.667,62.333 186.000,63.000 C184.693,66.720 185.044,64.693 186.000,70.000 C175.393,72.937 158.333,81.650 157.000,96.000 C159.750,98.912 160.589,98.168 162.000,103.000 C170.841,103.073 173.725,108.000 184.000,109.000 ZM669.000,45.000 C670.667,45.333 672.333,45.667 674.000,46.000 C672.333,45.667 670.667,45.333 669.000,45.000 ZM308.000,46.000 C309.344,48.682 310.318,48.921 311.000,46.000 C310.000,46.000 309.000,46.000 308.000,46.000 ZM526.000,49.000 C526.333,49.667 526.667,50.333 527.000,51.000 C526.667,50.333 526.333,49.667 526.000,49.000 ZM752.000,54.000 C754.000,54.333 756.000,54.667 758.000,55.000 C756.000,54.667 754.000,54.333 752.000,54.000 ZM246.000,57.000 C247.666,57.000 249.334,57.000 251.000,57.000 C250.667,58.333 250.333,59.667 250.000,61.000 C248.667,61.000 247.333,61.000 246.000,61.000 C245.667,60.333 245.333,59.667 245.000,59.000 C245.333,58.333 245.667,57.667 246.000,57.000 ZM469.000,61.000 C469.667,61.667 470.333,62.333 471.000,63.000 C470.333,62.333 469.667,61.667 469.000,61.000 ZM196.000,66.000 C197.333,66.000 198.667,66.000 200.000,66.000 C200.000,66.333 200.000,66.667 200.000,67.000 C200.000,67.333 200.000,67.667 200.000,68.000 C199.000,68.333 198.000,68.667 197.000,69.000 C196.667,68.000 196.333,67.000 196.000,66.000 ZM102.000,69.000 C99.334,70.000 96.666,71.000 94.000,72.000 C94.667,73.666 95.333,75.333 96.000,77.000 C101.835,76.503 105.583,77.171 109.000,71.000 C107.000,71.333 105.000,71.667 103.000,72.000 C103.386,68.861 104.502,70.934 102.000,69.000 ZM209.000,69.000 C208.667,70.333 208.333,71.667 208.000,73.000 C209.666,73.000 211.334,73.000 213.000,73.000 C213.000,72.333 213.000,71.667 213.000,71.000 C211.667,70.333 210.333,69.667 209.000,69.000 ZM328.000,72.000 C329.666,73.000 331.334,74.000 333.000,75.000 C332.667,76.000 332.333,77.000 332.000,78.000 C329.000,79.333 326.000,80.667 323.000,82.000 C320.667,81.333 318.333,80.667 316.000,80.000 C315.203,76.821 314.399,75.125 313.000,73.000 C318.202,74.750 322.487,75.704 328.000,72.000 ZM168.000,73.000 C168.667,74.000 169.333,75.000 170.000,76.000 C170.333,75.667 170.667,75.333 171.000,75.000 C170.000,74.333 169.000,73.667 168.000,73.000 ZM177.000,74.000 C179.666,75.666 182.334,77.333 185.000,79.000 C184.667,79.333 184.333,79.667 184.000,80.000 C181.491,80.370 181.919,80.222 179.000,82.000 C178.000,81.667 177.000,81.333 176.000,81.000 C176.333,78.667 176.667,76.333 177.000,74.000 ZM443.000,77.000 C443.667,77.000 444.333,77.000 445.000,77.000 C444.333,77.000 443.667,77.000 443.000,77.000 ZM123.000,83.000 C119.141,86.224 117.004,86.003 112.000,84.000 C111.667,86.333 111.333,88.667 111.000,91.000 C112.333,91.000 113.667,91.000 115.000,91.000 C119.000,89.000 123.000,87.000 127.000,85.000 C125.667,84.333 124.333,83.667 123.000,83.000 ZM353.000,98.000 C356.086,98.754 365.259,113.832 365.000,121.000 C352.685,121.734 355.045,118.400 357.000,111.000 C353.366,108.130 351.623,107.233 351.000,101.000 C351.667,100.000 352.333,99.000 353.000,98.000 ZM28.000,101.000 C29.000,101.000 30.000,101.000 31.000,101.000 C30.000,101.000 29.000,101.000 28.000,101.000 ZM17.000,104.000 C17.667,104.000 18.333,104.000 19.000,104.000 C18.000,104.667 17.000,105.333 16.000,106.000 C16.333,105.333 16.667,104.667 17.000,104.000 ZM600.000,106.000 C597.649,112.977 593.210,114.459 590.000,120.000 C590.333,120.000 590.667,120.000 591.000,120.000 C595.116,117.691 598.854,115.424 601.000,111.000 C601.734,107.546 602.204,108.423 600.000,106.000 ZM388.000,107.000 C388.667,107.000 389.333,107.000 390.000,107.000 C389.333,107.000 388.667,107.000 388.000,107.000 ZM345.000,109.000 C346.666,109.333 348.334,109.667 350.000,110.000 C349.667,112.333 349.333,114.667 349.000,117.000 C346.667,117.333 344.333,117.667 342.000,118.000 C343.479,112.602 344.136,113.090 345.000,109.000 ZM148.000,112.000 C149.666,115.666 151.334,119.334 153.000,123.000 C153.667,122.667 154.333,122.333 155.000,122.000 C155.000,121.667 155.000,121.333 155.000,121.000 C154.000,118.334 153.000,115.666 152.000,113.000 C150.667,112.667 149.333,112.333 148.000,112.000 ZM240.000,120.000 C241.940,121.756 240.406,122.668 242.000,126.000 C246.655,127.304 244.912,126.570 247.000,130.000 C243.000,130.000 239.000,130.000 235.000,130.000 C236.667,126.667 238.333,123.333 240.000,120.000 ZM354.000,121.000 C354.667,121.000 355.333,121.000 356.000,121.000 C355.333,121.000 354.667,121.000 354.000,121.000 ZM94.000,125.000 C95.333,128.925 94.373,128.229 98.000,130.000 C96.784,125.507 97.938,126.777 94.000,125.000 ZM170.000,127.000 C167.667,129.333 165.333,131.667 163.000,134.000 C168.666,134.000 174.334,134.000 180.000,134.000 C180.000,133.000 180.000,132.000 180.000,131.000 C179.000,130.333 178.000,129.667 177.000,129.000 C174.812,127.250 174.314,127.247 170.000,127.000 ZM247.000,130.000 C247.333,130.667 247.667,131.333 248.000,132.000 C247.667,131.333 247.333,130.667 247.000,130.000 ZM446.000,131.000 C441.340,133.758 434.490,132.814 430.000,134.000 C426.341,136.441 424.939,139.873 423.000,144.000 C423.579,149.161 422.266,149.007 426.000,151.000 C433.192,143.817 443.755,150.235 453.000,149.000 C453.333,147.333 453.667,145.667 454.000,144.000 C451.000,142.000 448.000,140.000 445.000,138.000 C446.556,135.134 449.220,133.056 446.000,131.000 ZM672.000,131.000 C672.333,131.667 672.667,132.333 673.000,133.000 C672.667,132.333 672.333,131.667 672.000,131.000 ZM481.000,161.000 C480.936,154.927 480.009,153.443 478.000,150.000 C483.350,148.176 480.911,150.431 481.000,145.000 C476.667,144.065 476.303,143.640 474.000,141.000 C475.667,139.000 477.333,137.000 479.000,135.000 C478.667,134.000 478.333,133.000 478.000,132.000 C475.000,132.333 472.000,132.667 469.000,133.000 C467.334,135.000 465.666,137.000 464.000,139.000 C468.702,147.389 469.852,148.513 469.000,159.000 C473.000,159.667 477.000,160.333 481.000,161.000 ZM525.000,132.000 C524.000,133.333 523.000,134.667 522.000,136.000 C522.667,136.667 523.333,137.333 524.000,138.000 C524.333,138.000 524.667,138.000 525.000,138.000 C526.788,133.142 530.198,134.704 528.000,132.000 C527.000,132.000 526.000,132.000 525.000,132.000 ZM533.000,133.000 C533.333,133.667 533.667,134.333 534.000,135.000 C533.576,134.072 534.802,134.324 533.000,133.000 ZM492.000,134.000 C491.667,136.333 491.333,138.667 491.000,141.000 C492.333,140.667 493.667,140.333 495.000,140.000 C495.000,138.000 495.000,136.000 495.000,134.000 C494.000,134.000 493.000,134.000 492.000,134.000 ZM175.000,135.000 C172.716,139.199 171.966,142.519 173.000,148.000 C173.333,148.000 173.667,148.000 174.000,148.000 C174.667,147.667 175.333,147.333 176.000,147.000 C176.902,141.188 177.672,140.200 180.000,135.000 C178.333,135.000 176.667,135.000 175.000,135.000 ZM181.000,135.000 C181.972,140.640 180.565,140.286 185.000,143.000 C185.333,143.000 185.667,143.000 186.000,143.000 C188.314,138.568 185.816,140.887 190.000,140.000 C189.667,138.333 189.333,136.666 189.000,135.000 C186.334,135.000 183.666,135.000 181.000,135.000 ZM230.000,135.000 C231.000,135.000 232.000,135.000 233.000,135.000 C232.000,135.000 231.000,135.000 230.000,135.000 ZM435.000,136.000 C436.333,136.000 437.667,136.000 439.000,136.000 C439.000,136.333 439.000,136.667 439.000,137.000 C438.333,137.667 437.667,138.333 437.000,139.000 C436.333,138.000 435.667,137.000 435.000,136.000 ZM671.000,138.000 C673.333,139.333 675.667,140.667 678.000,142.000 C678.000,142.333 678.000,142.667 678.000,143.000 C674.994,144.284 675.755,143.628 674.000,146.000 C673.000,145.667 672.000,145.333 671.000,145.000 C671.000,142.667 671.000,140.333 671.000,138.000 ZM193.000,140.000 C189.910,142.922 186.865,143.270 183.000,147.000 C183.000,147.333 183.000,147.667 183.000,148.000 C184.333,148.000 185.667,148.000 187.000,148.000 C191.000,145.334 195.000,142.666 199.000,140.000 C197.000,140.000 195.000,140.000 193.000,140.000 ZM382.000,149.000 C384.148,151.210 383.979,150.939 383.000,154.000 C382.667,154.000 382.333,154.000 382.000,154.000 C382.000,152.334 382.000,150.667 382.000,149.000 ZM668.000,149.000 C669.000,150.000 670.000,151.000 671.000,152.000 C669.495,156.503 668.322,157.546 668.000,164.000 C659.385,165.419 658.207,166.972 651.000,170.000 C650.366,164.690 648.770,169.413 651.000,164.000 C659.113,163.974 663.157,161.096 666.000,156.000 C666.667,153.667 667.333,151.333 668.000,149.000 ZM391.000,157.000 C395.495,158.165 394.339,156.138 396.000,160.000 C395.667,160.000 395.333,160.000 395.000,160.000 C393.667,159.000 392.333,158.000 391.000,157.000 ZM646.000,169.000 C649.572,171.803 647.618,168.834 648.000,174.000 C647.333,174.000 646.667,174.000 646.000,174.000 C646.000,172.334 646.000,170.666 646.000,169.000 ZM433.000,179.000 C434.000,180.000 435.000,181.000 436.000,182.000 C435.000,181.000 434.000,180.000 433.000,179.000 ZM120.000,187.000 C120.333,187.667 120.667,188.333 121.000,189.000 C120.667,188.333 120.333,187.667 120.000,187.000 ZM121.000,189.000 C121.667,190.333 122.333,191.667 123.000,193.000 C122.000,192.333 121.000,191.667 120.000,191.000 C120.333,190.333 120.667,189.667 121.000,189.000 ZM626.000,191.000 C626.000,192.666 626.000,194.333 626.000,196.000 C625.667,196.000 625.333,196.000 625.000,196.000 C624.667,196.000 624.333,196.000 624.000,196.000 C624.667,194.333 625.333,192.666 626.000,191.000 ZM123.000,193.000 C123.667,193.667 124.333,194.333 125.000,195.000 C124.333,194.333 123.667,193.667 123.000,193.000 ZM186.000,196.000 C190.999,198.000 196.001,200.000 201.000,202.000 C201.000,202.333 201.000,202.667 201.000,203.000 C199.333,203.000 197.667,203.000 196.000,203.000 C193.467,199.294 189.688,198.462 186.000,196.000 ZM206.000,204.000 C210.030,204.405 209.912,204.327 212.000,206.000 C212.000,206.333 212.000,206.667 212.000,207.000 C211.000,207.333 210.000,207.667 209.000,208.000 C207.667,207.667 206.333,207.333 205.000,207.000 C205.333,206.000 205.667,205.000 206.000,204.000 ZM600.000,204.000 C601.000,204.000 602.000,204.000 603.000,204.000 C602.667,205.000 602.333,206.000 602.000,207.000 C601.000,207.000 600.000,207.000 599.000,207.000 C599.333,206.000 599.667,205.000 600.000,204.000 ZM625.000,207.000 C628.615,209.485 627.881,215.122 626.000,219.000 C625.667,219.000 625.333,219.000 625.000,219.000 C624.667,217.334 624.333,215.667 624.000,214.000 C624.333,211.667 624.667,209.333 625.000,207.000 ZM634.000,222.000 C634.333,222.667 634.667,223.333 635.000,224.000 C634.667,223.333 634.333,222.667 634.000,222.000 ZM228.000,347.000 C227.353,353.126 227.652,352.662 223.000,352.000 C222.667,352.000 222.333,352.000 222.000,352.000 C222.222,360.891 220.663,361.458 216.000,367.000 C217.333,368.333 218.667,369.667 220.000,371.000 C216.296,375.515 210.404,381.088 214.000,387.000 C216.000,389.000 218.000,391.000 220.000,393.000 C216.667,392.667 213.333,392.333 210.000,392.000 C191.381,383.334 212.826,322.897 211.000,294.000 C198.590,287.745 192.352,273.993 187.000,261.000 C193.016,256.511 196.195,239.849 194.000,230.000 C198.762,229.621 201.674,225.851 207.000,223.000 C207.333,225.333 207.667,227.667 208.000,230.000 C208.667,229.667 209.333,229.333 210.000,229.000 C209.703,225.580 208.772,227.515 211.000,225.000 C215.152,223.985 248.481,236.417 252.000,242.000 C253.000,245.333 254.000,248.667 255.000,252.000 C265.337,260.395 278.204,256.810 287.000,266.000 C286.582,271.754 275.038,299.489 272.000,306.000 C252.624,307.568 256.427,329.754 237.000,336.000 C238.703,339.800 239.065,340.121 239.000,344.000 C235.334,345.000 231.666,346.000 228.000,347.000 ZM628.000,224.000 C628.667,224.000 629.333,224.000 630.000,224.000 C629.333,224.000 628.667,224.000 628.000,224.000 ZM630.000,225.000 C630.333,226.000 630.667,227.000 631.000,228.000 C630.667,228.000 630.333,228.000 630.000,228.000 C630.000,227.000 630.000,226.000 630.000,225.000 ZM577.000,228.000 C579.212,230.063 578.882,229.382 580.000,233.000 C577.788,230.937 578.118,231.618 577.000,228.000 ZM537.000,229.000 C539.258,231.344 539.375,231.566 540.000,236.000 C539.000,236.000 538.000,236.000 537.000,236.000 C537.000,233.667 537.000,231.333 537.000,229.000 ZM184.000,230.000 C184.667,230.000 185.333,230.000 186.000,230.000 C185.333,230.000 184.667,230.000 184.000,230.000 ZM188.000,230.000 C190.124,232.343 188.441,229.887 189.000,233.000 C188.000,232.667 187.000,232.333 186.000,232.000 C186.667,231.333 187.333,230.667 188.000,230.000 ZM634.000,230.000 C635.000,230.000 636.000,230.000 637.000,230.000 C637.000,231.333 637.000,232.667 637.000,234.000 C636.000,234.667 635.000,235.333 634.000,236.000 C633.667,236.000 633.333,236.000 633.000,236.000 C633.148,231.428 632.523,233.424 634.000,230.000 ZM581.000,235.000 C583.000,236.333 585.000,237.667 587.000,239.000 C587.215,243.513 587.708,244.391 589.000,247.000 C587.000,246.000 585.000,245.000 583.000,244.000 C582.333,241.000 581.667,238.000 581.000,235.000 ZM617.000,235.000 C620.753,239.804 619.635,252.826 613.000,260.000 C609.607,258.106 607.754,258.365 603.000,258.000 C602.000,254.667 601.000,251.333 600.000,248.000 C606.107,246.440 612.696,241.174 617.000,235.000 ZM571.000,239.000 C572.000,239.000 573.000,239.000 574.000,239.000 C579.648,244.040 585.462,253.419 593.000,256.000 C592.667,258.666 592.333,261.334 592.000,264.000 C583.188,261.226 575.270,246.330 571.000,239.000 ZM630.000,249.000 C630.667,249.000 631.333,249.000 632.000,249.000 C631.333,249.000 630.667,249.000 630.000,249.000 ZM433.000,250.000 C432.333,252.000 431.667,254.000 431.000,256.000 C431.333,256.667 431.667,257.333 432.000,258.000 C433.000,258.000 434.000,258.000 435.000,258.000 C435.667,257.333 436.333,256.667 437.000,256.000 C437.333,254.000 437.667,252.000 438.000,250.000 C436.334,250.000 434.666,250.000 433.000,250.000 ZM623.000,253.000 C626.280,254.272 624.198,253.917 628.000,254.000 C627.272,258.266 628.295,259.191 630.000,263.000 C629.667,263.000 629.333,263.000 629.000,263.000 C627.333,261.000 625.667,259.000 624.000,257.000 C623.667,259.333 623.333,261.667 623.000,264.000 C622.509,259.954 622.362,260.260 621.000,258.000 C621.667,256.334 622.333,254.667 623.000,253.000 ZM628.000,253.000 C628.667,253.000 629.333,253.000 630.000,253.000 C629.333,253.000 628.667,253.000 628.000,253.000 ZM654.000,253.000 C654.333,255.000 654.667,257.000 655.000,259.000 C655.333,259.000 655.667,259.000 656.000,259.000 C658.000,257.667 660.000,256.333 662.000,255.000 C675.091,260.542 679.914,264.985 688.000,275.000 C687.000,275.000 686.000,275.000 685.000,275.000 C680.889,271.625 681.448,269.676 674.000,269.000 C671.572,273.608 674.241,271.448 669.000,272.000 C667.000,271.333 665.000,270.667 663.000,270.000 C665.348,263.624 653.928,257.658 648.000,254.000 C648.000,253.667 648.000,253.333 648.000,253.000 C650.000,253.000 652.000,253.000 654.000,253.000 ZM642.000,258.000 C643.000,258.000 644.000,258.000 645.000,258.000 C644.000,258.000 643.000,258.000 642.000,258.000 ZM426.000,262.000 C426.468,267.374 426.935,269.098 431.000,271.000 C429.667,267.257 428.971,264.199 426.000,262.000 ZM688.000,264.000 C688.333,264.667 688.667,265.333 689.000,266.000 C688.667,265.333 688.333,264.667 688.000,264.000 ZM593.000,266.000 C598.000,266.667 603.000,267.333 608.000,268.000 C608.000,268.667 608.000,269.333 608.000,270.000 C606.333,270.000 604.667,270.000 603.000,270.000 C599.667,268.667 596.333,267.333 593.000,266.000 ZM609.000,270.000 C609.667,270.000 610.333,270.000 611.000,270.000 C610.333,270.000 609.667,270.000 609.000,270.000 ZM624.000,271.000 C624.667,271.000 625.333,271.000 626.000,271.000 C625.333,271.000 624.667,271.000 624.000,271.000 ZM436.000,273.000 C437.000,274.000 438.000,275.000 439.000,276.000 C438.000,275.000 437.000,274.000 436.000,273.000 ZM437.000,277.000 C437.056,281.538 437.198,282.747 439.000,285.000 C439.333,285.000 439.667,285.000 440.000,285.000 C439.667,282.334 439.333,279.666 439.000,277.000 C438.333,277.000 437.667,277.000 437.000,277.000 ZM672.000,278.000 C679.641,290.965 685.030,302.706 695.000,313.000 C695.721,326.958 691.335,332.968 687.000,344.000 C679.297,345.278 674.720,346.612 667.000,344.000 C665.333,340.000 663.667,336.000 662.000,332.000 C660.334,333.333 658.666,334.667 657.000,336.000 C653.000,320.013 626.265,332.370 618.000,337.000 C617.000,336.667 616.000,336.333 615.000,336.000 C613.333,325.668 611.667,315.332 610.000,305.000 C621.912,298.941 629.251,294.995 637.000,285.000 C647.396,286.609 646.902,279.554 659.000,281.000 C657.084,285.977 657.366,285.772 660.000,290.000 C665.730,292.128 664.986,293.604 670.000,292.000 C670.667,287.334 671.333,282.666 672.000,278.000 ZM469.000,282.000 C474.409,285.993 468.245,307.702 463.000,311.000 C462.000,311.333 461.000,311.667 460.000,312.000 C459.667,311.333 459.333,310.667 459.000,310.000 C456.103,294.164 464.046,292.346 469.000,282.000 ZM211.000,287.000 C211.667,288.333 212.333,289.667 213.000,291.000 C213.667,290.667 214.333,290.333 215.000,290.000 C215.000,289.667 215.000,289.333 215.000,289.000 C213.667,288.333 212.333,287.667 211.000,287.000 ZM748.000,293.000 C748.667,293.000 749.333,293.000 750.000,293.000 C749.333,293.000 748.667,293.000 748.000,293.000 ZM743.000,342.000 C746.992,345.279 747.927,344.486 747.000,348.000 C745.667,350.000 744.333,352.000 743.000,354.000 C742.999,349.523 743.506,351.416 741.000,348.000 C741.667,346.000 742.333,344.000 743.000,342.000 ZM678.000,353.000 C680.000,353.000 682.000,353.000 684.000,353.000 C684.000,354.667 684.000,356.333 684.000,358.000 C682.334,358.333 680.666,358.667 679.000,359.000 C678.667,357.000 678.333,355.000 678.000,353.000 ZM737.000,353.000 C738.000,353.333 739.000,353.667 740.000,354.000 C740.000,354.333 740.000,354.667 740.000,355.000 C736.786,361.625 733.191,367.722 725.000,367.000 C725.333,366.000 725.667,365.000 726.000,364.000 C730.709,361.476 734.552,357.851 737.000,353.000 ZM233.000,383.000 C233.667,383.000 234.333,383.000 235.000,383.000 C234.333,383.000 233.667,383.000 233.000,383.000 Z"/>
<path fill-rule="evenodd"  fill="rgb(240, 240, 240)"
 d="M441.464,147.342 L390.285,147.342 C386.882,147.342 384.123,144.582 384.123,141.179 L384.123,137.995 C384.123,134.592 386.882,131.833 390.285,131.833 L441.464,131.833 C444.867,131.833 447.626,134.592 447.626,137.995 L447.626,141.179 C447.626,144.582 444.867,147.342 441.464,147.342 ZM441.464,129.617 L390.285,129.617 C386.882,129.617 384.123,126.858 384.123,123.455 L384.123,120.271 C384.123,116.868 386.882,114.109 390.285,114.109 L441.464,114.109 C444.867,114.109 447.626,116.868 447.626,120.271 L447.626,123.455 C447.626,126.858 444.867,129.617 441.464,129.617 ZM441.464,112.139 L390.285,112.139 C386.882,112.139 384.123,109.380 384.123,105.977 L384.123,102.793 C384.123,99.390 386.882,96.631 390.285,96.631 L441.464,96.631 C444.867,96.631 447.626,99.390 447.626,102.793 L447.626,105.977 C447.626,109.380 444.867,112.139 441.464,112.139 Z"/>
<path fill-rule="evenodd"  fill="rgb(240, 240, 240)"
 d="M267.790,271.360 L216.612,271.360 C213.208,271.360 210.449,268.601 210.449,265.197 L210.449,262.014 C210.449,258.610 213.208,255.851 216.612,255.851 L267.790,255.851 C271.193,255.851 273.953,258.610 273.953,262.014 L273.953,265.197 C273.953,268.601 271.193,271.360 267.790,271.360 ZM267.790,253.636 L216.612,253.636 C213.208,253.636 210.449,250.877 210.449,247.473 L210.449,244.290 C210.449,240.886 213.208,238.127 216.612,238.127 L267.790,238.127 C271.193,238.127 273.953,240.886 273.953,244.290 L273.953,247.473 C273.953,250.877 271.193,253.636 267.790,253.636 ZM267.790,236.158 L216.612,236.158 C213.208,236.158 210.449,233.399 210.449,229.995 L210.449,226.812 C210.449,223.408 213.208,220.649 216.612,220.649 L267.790,220.649 C271.193,220.649 273.953,223.408 273.953,226.812 L273.953,229.995 C273.953,233.399 271.193,236.158 267.790,236.158 Z"/>
<path fill-rule="evenodd"  fill="rgb(240, 240, 240)"
 d="M670.641,198.481 L619.463,198.481 C616.060,198.481 613.301,195.722 613.301,192.319 L613.301,189.135 C613.301,185.732 616.060,182.973 619.463,182.973 L670.641,182.973 C674.045,182.973 676.804,185.732 676.804,189.135 L676.804,192.319 C676.804,195.722 674.045,198.481 670.641,198.481 ZM670.641,180.757 L619.463,180.757 C616.060,180.757 613.301,177.998 613.301,174.595 L613.301,171.411 C613.301,168.008 616.060,165.248 619.463,165.248 L670.641,165.248 C674.045,165.248 676.804,168.008 676.804,171.411 L676.804,174.595 C676.804,177.998 674.045,180.757 670.641,180.757 ZM670.641,163.279 L619.463,163.279 C616.060,163.279 613.301,160.520 613.301,157.116 L613.301,153.933 C613.301,150.530 616.060,147.770 619.463,147.770 L670.641,147.770 C674.045,147.770 676.804,150.530 676.804,153.933 L676.804,157.116 C676.804,160.520 674.045,163.279 670.641,163.279 Z"/>
<path fill-rule="evenodd"  fill="rgb(39, 39, 39)"
 d="M417.000,233.000 L417.000,298.000 L417.000,303.000 L245.000,303.000 L240.000,303.000 L240.000,271.000 L245.000,271.000 L245.000,298.000 L412.000,298.000 L412.000,147.000 L417.000,147.000 L417.000,228.000 L643.000,228.000 L643.000,198.000 L648.000,198.000 L648.000,228.000 L648.000,233.000 L417.000,233.000 Z"/>
<path fill-rule="evenodd"  fill="rgb(39, 39, 39)"
 d="M413.864,181.906 C439.537,181.906 460.350,202.721 460.350,228.398 C460.350,254.074 439.537,274.889 413.864,274.889 C388.191,274.889 367.379,254.074 367.379,228.398 C367.379,202.721 388.191,181.906 413.864,181.906 Z"/>
<path fill-rule="evenodd"  opacity="0.502" fill="rgb(240, 240, 240)"
 d="M427.000,217.000 C426.880,223.145 423.991,229.577 425.000,232.000 C429.846,235.436 437.577,233.992 440.000,240.000 C443.289,244.232 445.221,252.778 446.000,259.000 C441.695,260.396 438.676,263.761 435.000,266.000 C435.000,259.001 435.000,251.999 435.000,245.000 C421.001,245.000 406.999,245.000 393.000,245.000 C391.343,249.866 391.923,258.523 392.000,265.000 C392.333,265.333 392.667,265.667 393.000,266.000 C392.000,266.000 391.000,266.000 390.000,266.000 C386.652,261.894 381.008,261.574 379.000,256.000 C381.000,250.001 383.000,243.999 385.000,238.000 C389.079,236.299 399.215,234.226 401.000,230.000 C398.321,226.493 400.076,220.183 398.000,217.000 C396.341,214.457 395.486,218.458 394.000,213.000 C394.667,213.000 395.333,213.000 396.000,213.000 C397.073,212.248 396.946,212.399 399.000,212.000 C399.352,207.505 399.741,199.042 402.000,196.000 C403.690,194.858 406.896,194.934 410.000,195.000 C413.113,196.996 418.983,195.214 424.000,195.000 C424.000,195.667 424.000,196.333 424.000,197.000 C426.131,200.480 424.780,207.577 427.000,211.000 C429.542,213.193 430.065,211.687 431.000,216.000 C430.667,216.333 430.333,216.667 430.000,217.000 C429.000,217.000 428.000,217.000 427.000,217.000 ZM401.000,217.000 C400.442,218.603 400.200,219.404 400.000,222.000 C400.333,222.000 400.667,222.000 401.000,222.000 C403.306,216.490 419.562,217.964 425.000,220.000 C425.000,219.333 425.000,218.667 425.000,218.000 C424.667,217.667 424.333,217.333 424.000,217.000 C416.334,217.000 408.666,217.000 401.000,217.000 ZM412.000,222.000 C411.161,225.366 411.102,225.803 408.000,227.000 C405.034,228.956 403.298,227.267 401.000,226.000 C401.000,226.333 401.000,226.667 401.000,227.000 C403.128,229.476 404.262,234.204 407.000,236.000 C415.042,241.276 422.236,233.095 424.000,226.000 C423.667,226.000 423.333,226.000 423.000,226.000 C421.263,228.022 420.855,227.869 417.000,228.000 C415.712,225.877 413.972,223.487 412.000,222.000 ZM394.000,247.000 C406.999,247.000 420.001,247.000 433.000,247.000 C433.000,254.666 433.000,262.334 433.000,270.000 C420.001,270.000 406.999,270.000 394.000,270.000 C394.000,262.334 394.000,254.666 394.000,247.000 ZM397.000,271.000 C405.294,270.835 424.113,268.215 430.000,272.000 C421.047,273.270 404.245,276.735 397.000,271.000 Z"/>
<path fill-rule="evenodd"  fill="rgb(240, 240, 240)"
 d="M456.251,195.986 C454.348,197.901 451.457,198.182 449.240,196.870 L415.994,230.237 L449.422,263.787 C451.613,262.601 454.392,262.912 456.241,264.773 C458.500,267.046 458.500,270.731 456.241,273.004 C453.982,275.277 450.320,275.277 448.061,273.004 C446.128,271.059 445.863,268.087 447.237,265.843 L413.877,232.362 L380.514,265.845 C381.894,268.089 381.630,271.067 379.695,273.014 C377.436,275.287 373.774,275.287 371.515,273.014 C369.256,270.741 369.256,267.056 371.515,264.783 C373.362,262.925 376.136,262.612 378.325,263.792 L411.759,230.237 L378.506,196.863 C376.290,198.169 373.404,197.887 371.503,195.974 C369.244,193.701 369.244,190.016 371.503,187.743 C373.762,185.471 377.425,185.471 379.684,187.744 C381.565,189.636 381.856,192.499 380.604,194.719 L413.877,228.112 L447.146,194.722 C445.900,192.503 446.192,189.645 448.071,187.755 C450.330,185.482 453.992,185.482 456.251,187.755 C458.510,190.028 458.510,193.713 456.251,195.986 Z"/>
</svg>